<svg width="1512" height="130" viewBox="0 0 1512 130" fill="none" xmlns="http://www.w3.org/2000/svg">
<path d="M219 -21.5H266L266 -208.5L219 -208.5V-21.5Z" fill="url(#paint0_linear_346_9)"/>
<path d="M266 -0.5H278V8.5L313 -0.5L313 -187.5H266L266 -0.5Z" fill="url(#paint1_linear_346_9)"/>
<path d="M388 2.5L401 6L436 6L436 -176.5H389L388 2.5Z" fill="url(#paint2_linear_346_9)"/>
<path d="M459 90.5L466.5 92.5H503.5V89.5H506L506 -162.5H459L459 90.5Z" fill="url(#paint3_linear_346_9)"/>
<path d="M524 21.5L531.5 23.5H573V-162.5H524V21.5Z" fill="url(#paint4_linear_346_9)"/>
<path d="M573 9.5H587.5V16.5H606.5V13.5H622V9.5V-176.5H573V9.5Z" fill="url(#paint5_linear_346_9)"/>
<path d="M681 9.5H704.5V22H716V33L767 33V9.5V-176.5L681 -176.5V9.5Z" fill="url(#paint6_linear_346_9)"/>
<path d="M801 98.5V117H817V112.5H842.5V127.5L914 127.5V98.5V-199.5H801V98.5Z" fill="url(#paint7_linear_346_9)"/>
<path d="M923 82.5H955.5V92H995.5V82.5L1036 82.5V-176.5H923V82.5Z" fill="url(#paint8_linear_346_9)"/>
<path d="M1048 41L1172 41V-181L1048 -185V41Z" fill="url(#paint9_linear_346_9)"/>
<path d="M1172 -10.5H1234V-166.5L1172 -181V-10.5Z" fill="url(#paint10_linear_346_9)"/>
<path d="M1289 112.5H1299V90.5L1316.5 90.5L1328 130L1363 120.5V-166.5H1289V112.5Z" fill="url(#paint11_linear_346_9)"/>
<path d="M1459 36H1464V34H1477.5V40H1472.5V52.5H1480V65H1512V-163.5H1459V36Z" fill="url(#paint12_linear_346_9)"/>
<path d="M1395 39.5H1401V25.5H1415V33H1422.5V36L1459 36V-194.5H1395V39.5Z" fill="url(#paint13_linear_346_9)"/>
<path d="M172 -39.5L181.5 -35H219V-216.5H172V-39.5Z" fill="url(#paint14_linear_346_9)"/>
<path d="M12.5 44H20.5V52H42.5V59.5L59.5 59.5L59.5 41L65.5 32.5V14H68V24H81.5V9.5H89L89 -176.5H0L0 -0.5H12.5L12.5 44Z" fill="url(#paint15_linear_346_9)"/>
<defs>
<linearGradient id="paint0_linear_346_9" x1="799" y1="-387.5" x2="792" y2="74" gradientUnits="userSpaceOnUse">
<stop offset="0.121667" stop-color="#993865"/>
<stop offset="1" stop-color="#401986"/>
</linearGradient>
<linearGradient id="paint1_linear_346_9" x1="799" y1="-387.5" x2="792" y2="74" gradientUnits="userSpaceOnUse">
<stop offset="0.121667" stop-color="#993865"/>
<stop offset="1" stop-color="#401986"/>
</linearGradient>
<linearGradient id="paint2_linear_346_9" x1="799" y1="-387.5" x2="792" y2="74" gradientUnits="userSpaceOnUse">
<stop offset="0.121667" stop-color="#993865"/>
<stop offset="1" stop-color="#401986"/>
</linearGradient>
<linearGradient id="paint3_linear_346_9" x1="799" y1="-387.5" x2="792" y2="74" gradientUnits="userSpaceOnUse">
<stop offset="0.121667" stop-color="#993865"/>
<stop offset="1" stop-color="#401986"/>
</linearGradient>
<linearGradient id="paint4_linear_346_9" x1="799" y1="-387.5" x2="792" y2="74" gradientUnits="userSpaceOnUse">
<stop offset="0.121667" stop-color="#993865"/>
<stop offset="1" stop-color="#401986"/>
</linearGradient>
<linearGradient id="paint5_linear_346_9" x1="799" y1="-387.5" x2="792" y2="74" gradientUnits="userSpaceOnUse">
<stop offset="0.121667" stop-color="#993865"/>
<stop offset="1" stop-color="#401986"/>
</linearGradient>
<linearGradient id="paint6_linear_346_9" x1="799" y1="-387.5" x2="792" y2="74" gradientUnits="userSpaceOnUse">
<stop offset="0.121667" stop-color="#993865"/>
<stop offset="1" stop-color="#401986"/>
</linearGradient>
<linearGradient id="paint7_linear_346_9" x1="799" y1="-387.5" x2="792" y2="74" gradientUnits="userSpaceOnUse">
<stop offset="0.121667" stop-color="#993865"/>
<stop offset="1" stop-color="#401986"/>
</linearGradient>
<linearGradient id="paint8_linear_346_9" x1="799" y1="-387.5" x2="792" y2="74" gradientUnits="userSpaceOnUse">
<stop offset="0.121667" stop-color="#993865"/>
<stop offset="1" stop-color="#401986"/>
</linearGradient>
<linearGradient id="paint9_linear_346_9" x1="799" y1="-387.5" x2="792" y2="74" gradientUnits="userSpaceOnUse">
<stop offset="0.121667" stop-color="#993865"/>
<stop offset="1" stop-color="#401986"/>
</linearGradient>
<linearGradient id="paint10_linear_346_9" x1="799" y1="-387.5" x2="792" y2="74" gradientUnits="userSpaceOnUse">
<stop offset="0.121667" stop-color="#993865"/>
<stop offset="1" stop-color="#401986"/>
</linearGradient>
<linearGradient id="paint11_linear_346_9" x1="799" y1="-387.5" x2="792" y2="74" gradientUnits="userSpaceOnUse">
<stop offset="0.121667" stop-color="#993865"/>
<stop offset="1" stop-color="#401986"/>
</linearGradient>
<linearGradient id="paint12_linear_346_9" x1="799" y1="-387.5" x2="792" y2="74" gradientUnits="userSpaceOnUse">
<stop offset="0.121667" stop-color="#993865"/>
<stop offset="1" stop-color="#401986"/>
</linearGradient>
<linearGradient id="paint13_linear_346_9" x1="799" y1="-387.5" x2="792" y2="74" gradientUnits="userSpaceOnUse">
<stop offset="0.121667" stop-color="#993865"/>
<stop offset="1" stop-color="#401986"/>
</linearGradient>
<linearGradient id="paint14_linear_346_9" x1="799" y1="-387.5" x2="792" y2="74" gradientUnits="userSpaceOnUse">
<stop offset="0.121667" stop-color="#993865"/>
<stop offset="1" stop-color="#401986"/>
</linearGradient>
<linearGradient id="paint15_linear_346_9" x1="799" y1="-387.5" x2="792" y2="74" gradientUnits="userSpaceOnUse">
<stop offset="0.121667" stop-color="#993865"/>
<stop offset="1" stop-color="#401986"/>
</linearGradient>
</defs>
</svg>
