<svg width="1512" height="842" viewBox="0 0 1512 842" fill="none" xmlns="http://www.w3.org/2000/svg">
<path d="M106.5 307.5H100L92.5 306.5L88.5 300L89 295.5L92.5 292L87.5 288L87 266.5L95 263.5V254L99 253L107 252V243.5H105V234.5H108V233.5H110V152.5L107.845 150.5L106.5 146L109 142L112 138V85.0001H113.5V61.0001H116V35.0001H116.5V0L119 7.62939e-05V35.0001H119.5V61.0001H122V85.0001H123.5V138L127 142L129.5 146L128 150.5L125.5 152.5L126 200.5V233.5H128V234.5H130.5V243.5H129V252L137 253L141 254V263.5L149 266.5L148 288L143 292L148 298.5L143 306.5L136 307.5H129.5L142 676L144 781.5H91.5L93.5 676L106.5 307.5Z" fill="url(#paint0_linear_346_4)"/>
<path d="M594.933 822.5V829L592.998 836.5L580.422 840.5L571.716 840L564.944 836.5L557.205 841.5L515.608 842L509.804 834H491.424L489.49 830L487.555 822H471.109V824H453.697V821H451.762V819H295.048L291.179 821.155L282.472 822.5L274.733 820L266.994 817H164.453V815.5H118.019V813H67.7161V812.5H0L0.000147609 810H67.7161V809.5H118.019V807H164.453V805.5H266.994L274.733 802L282.472 799.5L291.179 801L295.048 803.5L387.916 803H451.762V801H453.697V798.5H471.109V800H487.555L489.49 792L491.424 788H509.804L515.608 780L557.205 781L564.944 786L577.52 781L592.998 786L594.933 793V799.5L1307.88 787L1512 785V837.5L1307.88 835.5L594.933 822.5Z" fill="url(#paint1_linear_346_4)"/>
<defs>
<linearGradient id="paint0_linear_346_4" x1="756" y1="885" x2="676.982" y2="382.914" gradientUnits="userSpaceOnUse">
<stop stop-color="#FF5DA9"/>
<stop offset="0.811667" stop-color="#7799E4"/>
</linearGradient>
<linearGradient id="paint1_linear_346_4" x1="756" y1="885" x2="676.982" y2="382.914" gradientUnits="userSpaceOnUse">
<stop stop-color="#FF5DA9"/>
<stop offset="0.811667" stop-color="#7799E4"/>
</linearGradient>
</defs>
</svg>
