<svg width="2100" height="132" viewBox="0 0 2100 132" fill="none" xmlns="http://www.w3.org/2000/svg">
<path d="M498 23.5H558V-119.5H618V67.5H693.5V-64.5H809V-110.5H892.5V59L907.5 60.5V69.5H938.5V75.5H955.5V81.5H984V73H997V-159.5H1021V62.5L1034.5 64V70H1122.5V62.5V-132.5H1214.5V88H1216.5V101.5H1220.5V106H1224.5V119.5H1232V126.5H1255H1262.5V131.5H1274.5V129H1284.5V123.5H1300.5V-88.5H1330.5V40H1345V56.5H1392V50H1400V40H1403V-8.5H1445V-23.5H1464V-132.5H1539V-65H1576.5V-57H1607V-65V-188.5H1683V54H1700V62H1721.5V58.5H1728.5V54H1741V-23.5H1798.5V-16H1805.5V-8.5H1825.5V-6H1837.5V-8.5H1852.25V-31H1867V-117.5H1913V-110.5H1920V-61H1929.5V-53H1987.5V-64H1997V-188.5H2033V-152H2100V-296H0V-39.5H40.5V-69H62.5V-88.5H124V-119.5H231.5V-96H295V67.5H392.5V-152H498V23.5Z" fill="#2B1B50"/>
</svg>
