<svg width="2100" height="247" viewBox="0 0 2100 247" fill="none" xmlns="http://www.w3.org/2000/svg">
<path d="M260 155.502H262.5V167.502H317V143.502H319.5L321 -274.5H260V155.502Z" fill="url(#paint0_linear_353_51)"/>
<path d="M358.001 74.5017V110.002H377.501V114.002H393.501V110.002H406.001L407.501 119.002L415.501 114.002V-296H385.001H354.501L358.001 74.5017Z" fill="url(#paint1_linear_353_51)"/>
<path d="M415.501 -24.9983H446.501V-296H415.501V-24.9983Z" fill="url(#paint2_linear_353_51)"/>
<path d="M446.501 112.002L451.501 113.002V123.002L457.501 125.502L459.501 122.502H474.001L475.501 124.002L481.501 123.502V111.502H485.501V-296H446.501V112.002Z" fill="url(#paint3_linear_353_51)"/>
<path d="M537.501 70.0017L542.001 74.0017H596.501V-296H538.501L537.501 70.0017Z" fill="url(#paint4_linear_353_51)"/>
<path d="M511.501 33.5017H517.001V37.0017H538.501V-296H511.501V33.5017Z" fill="url(#paint5_linear_353_51)"/>
<path d="M596.501 27.0017H623.501V-296H596.501V27.0017Z" fill="url(#paint6_linear_353_51)"/>
<path d="M623.501 80.0017H684.501V-296H623.501V80.0017Z" fill="url(#paint7_linear_353_51)"/>
<path d="M712.501 62.5017H722.001V74.0017H763.501V-296H712.501V62.5017Z" fill="url(#paint8_linear_353_51)"/>
<path d="M763.501 102.002H788.501V-296H763.501V102.002Z" fill="url(#paint9_linear_353_51)"/>
<path d="M788.501 141.002H793.501V143.502H808.001V141.002H830.501V-296H788.501V141.002Z" fill="url(#paint10_linear_353_51)"/>
<path d="M835.501 148.502L843.501 154.002H910.501V-296H835.501V148.502Z" fill="url(#paint11_linear_353_51)"/>
<path d="M910.501 210.502L913.501 211.002V219.502L916.501 220.002V228.002L929.001 232.002L956.501 231.502V223.002H959.501V-296H910.501V210.502Z" fill="url(#paint12_linear_353_51)"/>
<path d="M988.501 236.002L992.501 237.002V244.002L1002.5 247.002H1033V241.002H1037.5L1039 -296H988.501V236.002Z" fill="url(#paint13_linear_353_51)"/>
<path d="M1039 165.5L1066.5 166.002V-296H1039V-65V165.5Z" fill="url(#paint14_linear_353_51)"/>
<path d="M1072.5 153.002H1079.5V168.002L1090.5 172.502V189.002H1086.5V197.002L1090.5 199.002L1093.5 210.002L1097 199.002L1100.5 197.002V189.002H1097V172.502L1108 169.002V153.002H1113.5V-296H1072.5V153.002Z" fill="url(#paint15_linear_353_51)"/>
<path d="M1115.5 133.002H1135V130.002H1143V133.002L1147.5 134.502H1168.5V130.502H1172.5V118.002H1177V100.002H1182.5V-296H1113.5L1115.5 -81.5V133.002Z" fill="url(#paint16_linear_353_51)"/>
<path d="M1182.5 38.0017H1195.5V34.0017H1203.5V17.5017H1219.5L1220.5 -296H1182.5V38.0017Z" fill="url(#paint17_linear_353_51)"/>
<path d="M1358.5 51.0017H1394.5V44.0017H1402V34.0017H1405V-296H1358.5V51.0017Z" fill="url(#paint18_linear_353_51)"/>
<path d="M0 -78.9983H2.5V-66.9983H57V-90.9983H59.5V-296H0V-78.9983Z" fill="url(#paint19_linear_353_51)"/>
<path d="M1451.5 -87.9983H1454V111H1459V118.002H1462V119.5H1487V118.002H1503L1508.5 113V88.5H1522V90.5L1534 88.5V83.5H1543V85H1563.5V83.5V-200.5H1571V103.5H1575.5V107.5H1588V109.5H1620.5V107.5H1629.5V-217H1697.5V138H1701.5V143.5H1717V151.5L1744 148.5V143.5V107.5H1748V109.5H1761V107.5H1765V26.5H1802V118.002H1814.5V123H1838V162H1848.5V165H1889V162H1898.5V152H1909.5V-217H2100V-296H1629.5H1571H1538H1451.5V-87.9983Z" fill="url(#paint20_linear_353_51)"/>
<defs>
<linearGradient id="paint0_linear_353_51" x1="729.5" y1="-236.996" x2="734.5" y2="247" gradientUnits="userSpaceOnUse">
<stop stop-color="#FF5DA9"/>
<stop offset="0.786667" stop-color="#6190F7"/>
</linearGradient>
<linearGradient id="paint1_linear_353_51" x1="729.5" y1="-236.996" x2="734.5" y2="247" gradientUnits="userSpaceOnUse">
<stop stop-color="#FF5DA9"/>
<stop offset="0.786667" stop-color="#6190F7"/>
</linearGradient>
<linearGradient id="paint2_linear_353_51" x1="729.5" y1="-236.996" x2="734.5" y2="247" gradientUnits="userSpaceOnUse">
<stop stop-color="#FF5DA9"/>
<stop offset="0.786667" stop-color="#6190F7"/>
</linearGradient>
<linearGradient id="paint3_linear_353_51" x1="729.5" y1="-236.996" x2="734.5" y2="247" gradientUnits="userSpaceOnUse">
<stop stop-color="#FF5DA9"/>
<stop offset="0.786667" stop-color="#6190F7"/>
</linearGradient>
<linearGradient id="paint4_linear_353_51" x1="729.5" y1="-236.996" x2="734.5" y2="247" gradientUnits="userSpaceOnUse">
<stop stop-color="#FF5DA9"/>
<stop offset="0.786667" stop-color="#6190F7"/>
</linearGradient>
<linearGradient id="paint5_linear_353_51" x1="729.5" y1="-236.996" x2="734.5" y2="247" gradientUnits="userSpaceOnUse">
<stop stop-color="#FF5DA9"/>
<stop offset="0.786667" stop-color="#6190F7"/>
</linearGradient>
<linearGradient id="paint6_linear_353_51" x1="729.5" y1="-236.996" x2="734.5" y2="247" gradientUnits="userSpaceOnUse">
<stop stop-color="#FF5DA9"/>
<stop offset="0.786667" stop-color="#6190F7"/>
</linearGradient>
<linearGradient id="paint7_linear_353_51" x1="729.5" y1="-236.996" x2="734.5" y2="247" gradientUnits="userSpaceOnUse">
<stop stop-color="#FF5DA9"/>
<stop offset="0.786667" stop-color="#6190F7"/>
</linearGradient>
<linearGradient id="paint8_linear_353_51" x1="729.5" y1="-236.996" x2="734.5" y2="247" gradientUnits="userSpaceOnUse">
<stop stop-color="#FF5DA9"/>
<stop offset="0.786667" stop-color="#6190F7"/>
</linearGradient>
<linearGradient id="paint9_linear_353_51" x1="729.5" y1="-236.996" x2="734.5" y2="247" gradientUnits="userSpaceOnUse">
<stop stop-color="#FF5DA9"/>
<stop offset="0.786667" stop-color="#6190F7"/>
</linearGradient>
<linearGradient id="paint10_linear_353_51" x1="729.5" y1="-236.996" x2="734.5" y2="247" gradientUnits="userSpaceOnUse">
<stop stop-color="#FF5DA9"/>
<stop offset="0.786667" stop-color="#6190F7"/>
</linearGradient>
<linearGradient id="paint11_linear_353_51" x1="729.5" y1="-236.996" x2="734.5" y2="247" gradientUnits="userSpaceOnUse">
<stop stop-color="#FF5DA9"/>
<stop offset="0.786667" stop-color="#6190F7"/>
</linearGradient>
<linearGradient id="paint12_linear_353_51" x1="729.5" y1="-236.996" x2="734.5" y2="247" gradientUnits="userSpaceOnUse">
<stop stop-color="#FF5DA9"/>
<stop offset="0.786667" stop-color="#6190F7"/>
</linearGradient>
<linearGradient id="paint13_linear_353_51" x1="729.5" y1="-236.996" x2="734.5" y2="247" gradientUnits="userSpaceOnUse">
<stop stop-color="#FF5DA9"/>
<stop offset="0.786667" stop-color="#6190F7"/>
</linearGradient>
<linearGradient id="paint14_linear_353_51" x1="729.5" y1="-236.996" x2="734.5" y2="247" gradientUnits="userSpaceOnUse">
<stop stop-color="#FF5DA9"/>
<stop offset="0.786667" stop-color="#6190F7"/>
</linearGradient>
<linearGradient id="paint15_linear_353_51" x1="729.5" y1="-236.996" x2="734.5" y2="247" gradientUnits="userSpaceOnUse">
<stop stop-color="#FF5DA9"/>
<stop offset="0.786667" stop-color="#6190F7"/>
</linearGradient>
<linearGradient id="paint16_linear_353_51" x1="729.5" y1="-236.996" x2="734.5" y2="247" gradientUnits="userSpaceOnUse">
<stop stop-color="#FF5DA9"/>
<stop offset="0.786667" stop-color="#6190F7"/>
</linearGradient>
<linearGradient id="paint17_linear_353_51" x1="729.5" y1="-236.996" x2="734.5" y2="247" gradientUnits="userSpaceOnUse">
<stop stop-color="#FF5DA9"/>
<stop offset="0.786667" stop-color="#6190F7"/>
</linearGradient>
<linearGradient id="paint18_linear_353_51" x1="729.5" y1="-236.996" x2="734.5" y2="247" gradientUnits="userSpaceOnUse">
<stop stop-color="#FF5DA9"/>
<stop offset="0.786667" stop-color="#6190F7"/>
</linearGradient>
<linearGradient id="paint19_linear_353_51" x1="729.5" y1="-236.996" x2="734.5" y2="247" gradientUnits="userSpaceOnUse">
<stop stop-color="#FF5DA9"/>
<stop offset="0.786667" stop-color="#6190F7"/>
</linearGradient>
<linearGradient id="paint20_linear_353_51" x1="729.5" y1="-236.996" x2="734.5" y2="247" gradientUnits="userSpaceOnUse">
<stop stop-color="#FF5DA9"/>
<stop offset="0.786667" stop-color="#6190F7"/>
</linearGradient>
</defs>
</svg>
