<svg width="2100" height="934" viewBox="0 0 2100 934" fill="none" xmlns="http://www.w3.org/2000/svg">
<path d="M207.5 307.5H201L193.5 306.5L189.5 300L190 295.5L193.5 292L188.5 288L188 266.5L196 263.5V254L200 253L208 252V243.5H206V234.5H209V233.5H211V152.5L208.845 150.5L207.5 146L210 142L213 138V85.0001H214.5V61.0001H217V35.0001H217.5V0L220 7.62939e-05V35.0001H220.5V61.0001H223V85.0001H224.5V138L228 142L230.5 146L229 150.5L226.5 152.5L227 200.5V233.5H229V234.5H231.5V243.5H230V252L238 253L242 254V263.5L250 266.5L249 288L244 292L249 298.5L244 306.5L237 307.5H230.5L243 676L245 781.5H192.5L194.5 676L207.5 307.5Z" fill="url(#paint0_linear_351_32)"/>
<path d="M594.933 880V886.5L592.998 894L580.422 898L571.716 897.5L564.944 894L557.205 899L530.5 934L509.804 891.5H491.424L489.49 887.5L487.555 879.5H471.109V881.5H453.697V878.5H451.762V876.5H295.048L291.179 878.655L282.472 880L274.733 877.5L266.994 874.5H164.453V873H118.019V870.5H67.7161V870H0L0.000147609 867.5H67.7161V867H118.019V864.5H164.453V863H266.994L274.733 859.5L282.472 857L291.179 858.5L295.048 861L387.916 860.5H451.762V858.5H453.697V856H471.109V857.5H487.555L489.49 849.5L491.424 845.5H509.804L515.608 837.5L557.205 838.5L564.944 843.5L577.52 838.5L592.998 843.5L594.933 850.5V857L1307.88 844.5L2100 850.5L1512 895L1307.88 893L594.933 880Z" fill="url(#paint1_linear_351_32)"/>
<defs>
<linearGradient id="paint0_linear_351_32" x1="756" y1="885" x2="676.982" y2="382.914" gradientUnits="userSpaceOnUse">
<stop stop-color="#FF5DA9"/>
<stop offset="0.811667" stop-color="#7799E4"/>
</linearGradient>
<linearGradient id="paint1_linear_351_32" x1="756" y1="885" x2="676.982" y2="382.914" gradientUnits="userSpaceOnUse">
<stop stop-color="#FF5DA9"/>
<stop offset="0.811667" stop-color="#7799E4"/>
</linearGradient>
</defs>
</svg>
