<svg width="1512" height="592" viewBox="0 0 1512 592" fill="none" xmlns="http://www.w3.org/2000/svg">
<path d="M117.155 311.062H128.17V0H117.155V311.062Z" fill="url(#paint0_linear_344_8)"/>
<path d="M267.354 382.361H300.397V0H267.354V382.361Z" fill="url(#paint1_linear_344_8)"/>
<path d="M304.403 427.055H381.505V0H304.403V427.055Z" fill="url(#paint2_linear_344_8)"/>
<path d="M381.505 370.655H451.597V0H381.505V370.655Z" fill="url(#paint3_linear_344_8)"/>
<path d="M635.841 535.667L638.344 539.458L633.838 542.708L646.355 545.417L675.894 542.708L670.387 539.458L675.894 534.042V0H635.841V535.667Z" fill="url(#paint4_linear_344_8)"/>
<path d="M690.914 592L768.016 580.826V0H690.914V592Z" fill="url(#paint5_linear_344_8)"/>
<path d="M822.087 557.875L830.098 563.292H840.612V569.792H877.16V563.292H893.682V0H822.087V557.875Z" fill="url(#paint6_linear_344_8)"/>
<path d="M936.238 499.418H973.788L978.294 494.5H1000.32H1008.33L1007.83 0H936.238V499.418Z" fill="url(#paint7_linear_344_8)"/>
<path d="M1008.33 548.369H1052.39L1079.93 543.792V0H1008.33V548.369Z" fill="url(#paint8_linear_344_8)"/>
<path d="M1079.93 498.833H1134V0H1079.93V498.833Z" fill="url(#paint9_linear_344_8)"/>
<path d="M1159.53 492.333H1186.57V0H1159.53V492.333Z" fill="url(#paint10_linear_344_8)"/>
<path d="M1241.64 486.375H1253.16V482.583H1267.68V495.042H1297.72V0H1241.64V486.375Z" fill="url(#paint11_linear_344_8)"/>
<path d="M169.224 328.089H193.256V0H169.224V328.089Z" fill="url(#paint12_linear_344_8)"/>
<path d="M128.17 370.655H161.213V290H169.224V0H128.17V370.655Z" fill="url(#paint13_linear_344_8)"/>
<path d="M78.1033 375.976H117.155V0H78.1033V375.976Z" fill="url(#paint14_linear_344_8)"/>
<path d="M42.0556 404.042H52.5695V412.708H70.0927L73.5974 410.542V388.875L78.1033 380.75V0H42.0556V404.042Z" fill="url(#paint15_linear_344_8)"/>
<path d="M0 391.583L16.0212 391.583V354.75H22.5298V397.259H34.045V0H0V391.583Z" fill="url(#paint16_linear_344_8)"/>
<path d="M34.045 397.259H42.0556V0H34.045V397.259Z" fill="url(#paint17_linear_344_8)"/>
<path d="M1487.97 271.688H1512V0H1487.97V271.688Z" fill="url(#paint18_linear_344_8)"/>
<defs>
<linearGradient id="paint0_linear_344_8" x1="717.949" y1="153" x2="685.613" y2="395.161" gradientUnits="userSpaceOnUse">
<stop stop-color="#FF5DA9"/>
<stop offset="1" stop-color="#5133B2"/>
</linearGradient>
<linearGradient id="paint1_linear_344_8" x1="717.949" y1="153" x2="685.613" y2="395.161" gradientUnits="userSpaceOnUse">
<stop stop-color="#FF5DA9"/>
<stop offset="1" stop-color="#5133B2"/>
</linearGradient>
<linearGradient id="paint2_linear_344_8" x1="717.949" y1="153" x2="685.613" y2="395.161" gradientUnits="userSpaceOnUse">
<stop stop-color="#FF5DA9"/>
<stop offset="1" stop-color="#5133B2"/>
</linearGradient>
<linearGradient id="paint3_linear_344_8" x1="717.949" y1="153" x2="685.613" y2="395.161" gradientUnits="userSpaceOnUse">
<stop stop-color="#FF5DA9"/>
<stop offset="1" stop-color="#5133B2"/>
</linearGradient>
<linearGradient id="paint4_linear_344_8" x1="717.949" y1="153" x2="685.613" y2="395.161" gradientUnits="userSpaceOnUse">
<stop stop-color="#FF5DA9"/>
<stop offset="1" stop-color="#5133B2"/>
</linearGradient>
<linearGradient id="paint5_linear_344_8" x1="717.949" y1="153" x2="685.613" y2="395.161" gradientUnits="userSpaceOnUse">
<stop stop-color="#FF5DA9"/>
<stop offset="1" stop-color="#5133B2"/>
</linearGradient>
<linearGradient id="paint6_linear_344_8" x1="717.949" y1="153" x2="685.613" y2="395.161" gradientUnits="userSpaceOnUse">
<stop stop-color="#FF5DA9"/>
<stop offset="1" stop-color="#5133B2"/>
</linearGradient>
<linearGradient id="paint7_linear_344_8" x1="717.949" y1="153" x2="685.613" y2="395.161" gradientUnits="userSpaceOnUse">
<stop stop-color="#FF5DA9"/>
<stop offset="1" stop-color="#5133B2"/>
</linearGradient>
<linearGradient id="paint8_linear_344_8" x1="717.949" y1="153" x2="685.613" y2="395.161" gradientUnits="userSpaceOnUse">
<stop stop-color="#FF5DA9"/>
<stop offset="1" stop-color="#5133B2"/>
</linearGradient>
<linearGradient id="paint9_linear_344_8" x1="717.949" y1="153" x2="685.613" y2="395.161" gradientUnits="userSpaceOnUse">
<stop stop-color="#FF5DA9"/>
<stop offset="1" stop-color="#5133B2"/>
</linearGradient>
<linearGradient id="paint10_linear_344_8" x1="717.949" y1="153" x2="685.613" y2="395.161" gradientUnits="userSpaceOnUse">
<stop stop-color="#FF5DA9"/>
<stop offset="1" stop-color="#5133B2"/>
</linearGradient>
<linearGradient id="paint11_linear_344_8" x1="717.949" y1="153" x2="685.613" y2="395.161" gradientUnits="userSpaceOnUse">
<stop stop-color="#FF5DA9"/>
<stop offset="1" stop-color="#5133B2"/>
</linearGradient>
<linearGradient id="paint12_linear_344_8" x1="717.949" y1="153" x2="685.613" y2="395.161" gradientUnits="userSpaceOnUse">
<stop stop-color="#FF5DA9"/>
<stop offset="1" stop-color="#5133B2"/>
</linearGradient>
<linearGradient id="paint13_linear_344_8" x1="717.949" y1="153" x2="685.613" y2="395.161" gradientUnits="userSpaceOnUse">
<stop stop-color="#FF5DA9"/>
<stop offset="1" stop-color="#5133B2"/>
</linearGradient>
<linearGradient id="paint14_linear_344_8" x1="717.949" y1="153" x2="685.613" y2="395.161" gradientUnits="userSpaceOnUse">
<stop stop-color="#FF5DA9"/>
<stop offset="1" stop-color="#5133B2"/>
</linearGradient>
<linearGradient id="paint15_linear_344_8" x1="717.949" y1="153" x2="685.613" y2="395.161" gradientUnits="userSpaceOnUse">
<stop stop-color="#FF5DA9"/>
<stop offset="1" stop-color="#5133B2"/>
</linearGradient>
<linearGradient id="paint16_linear_344_8" x1="717.949" y1="153" x2="685.613" y2="395.161" gradientUnits="userSpaceOnUse">
<stop stop-color="#FF5DA9"/>
<stop offset="1" stop-color="#5133B2"/>
</linearGradient>
<linearGradient id="paint17_linear_344_8" x1="717.949" y1="153" x2="685.613" y2="395.161" gradientUnits="userSpaceOnUse">
<stop stop-color="#FF5DA9"/>
<stop offset="1" stop-color="#5133B2"/>
</linearGradient>
<linearGradient id="paint18_linear_344_8" x1="717.949" y1="153" x2="685.613" y2="395.161" gradientUnits="userSpaceOnUse">
<stop stop-color="#FF5DA9"/>
<stop offset="1" stop-color="#5133B2"/>
</linearGradient>
</defs>
</svg>
