<svg width="1512" height="123" viewBox="0 0 1512 123" fill="none" xmlns="http://www.w3.org/2000/svg">
<path d="M498 14.5L558 14.5V-128.5L618 -128.5V58.5L693.5 58.5V-73.5H809V-119.5L892.5 -119.5V50L907.5 51.5V60.5H938.5V66.5H955.5V72.5H984V64H997V-168.5H1021V53.5L1034.5 55V61L1122.5 61V53.5V-141.5L1214.5 -141.5V79H1216.5V92.5H1220.5V97H1224.5V110.5L1232 110.5V117.5H1255H1262.5V122.5H1274.5V120H1284.5V114.5H1300.5V-97.5H1330.5V31L1345 31V47.5H1392V41H1400V31H1403V-17.5H1445V-32.5H1464V-141.5H1512V-304L0 -304L0 -48.5H40.5V-78H62.5L62.5 -97.5L124 -97.5V-128.5H231.5V-105H295V58.5H392.5L392.5 -161H498L498 14.5Z" fill="#2B1B50"/>
</svg>
