<svg width="2100" height="592" viewBox="0 0 2100 592" fill="none" xmlns="http://www.w3.org/2000/svg">
<path d="M117.155 280.938H128.17V592H117.155V280.938Z" fill="url(#paint0_linear_351_31)"/>
<path d="M267.354 209.639H300.397V592H267.354V209.639Z" fill="url(#paint1_linear_351_31)"/>
<path d="M304.403 164.945H381.505V592H304.403V164.945Z" fill="url(#paint2_linear_351_31)"/>
<path d="M381.505 221.345H451.597V592H381.505V221.345Z" fill="url(#paint3_linear_351_31)"/>
<path d="M635.841 56.3333L638.344 52.5417L633.838 49.2917L646.355 46.5833L675.894 49.2917L670.387 52.5417L675.894 57.9583V592H635.841V56.3333Z" fill="url(#paint4_linear_351_31)"/>
<path d="M690.914 0L768.016 11.1737V592H690.914V0Z" fill="url(#paint5_linear_351_31)"/>
<path d="M822.087 34.125L830.098 28.7083H840.612V22.2083H877.16V28.7083H893.682V592H822.087V34.125Z" fill="url(#paint6_linear_351_31)"/>
<path d="M936.238 92.5818H973.788L978.294 97.5H1000.32H1008.33L1007.83 592H936.238V92.5818Z" fill="url(#paint7_linear_351_31)"/>
<path d="M1008.33 43.6305H1052.39L1079.93 48.2083V592H1008.33V43.6305Z" fill="url(#paint8_linear_351_31)"/>
<path d="M1079.93 93.1667H1134V592H1079.93V93.1667Z" fill="url(#paint9_linear_351_31)"/>
<path d="M1159.53 99.6667H1186.57V592H1159.53V99.6667Z" fill="url(#paint10_linear_351_31)"/>
<path d="M1241.64 105.625H1253.16V109.417H1267.68V96.9583H1297.72V592H1241.64V105.625Z" fill="url(#paint11_linear_351_31)"/>
<path d="M169.224 263.911H193.256V592H169.224V263.911Z" fill="url(#paint12_linear_351_31)"/>
<path d="M128.17 221.345H161.213V302H169.224V592H128.17V221.345Z" fill="url(#paint13_linear_351_31)"/>
<path d="M78.1033 216.024H117.155V592H78.1033V216.024Z" fill="url(#paint14_linear_351_31)"/>
<path d="M42.0556 187.958H52.5695V179.292H70.0927L73.5974 181.458V203.125L78.1033 211.25V592H42.0556V187.958Z" fill="url(#paint15_linear_351_31)"/>
<path d="M0 200.417L16.0212 200.417V237.25H22.5298V194.741H34.045V592H0V200.417Z" fill="url(#paint16_linear_351_31)"/>
<path d="M34.045 194.741H42.0556V592H34.045V194.741Z" fill="url(#paint17_linear_351_31)"/>
<path d="M1487.97 320.312H1512V509.5H1551.5V244.5H1596V144.5H1608V133.5H1664.5V509.5H1736.5V117.5H1759V96.9583H1772.5V91.5H1795V233H1808.5V78H1823.5V75.5H1866V78H1876V509.5H1963.5V226H1979V211H1996V172.5H2034V240H2050.5V183.5H2070V178.5H2100V183.5V592H1512H1487.97V320.312Z" fill="url(#paint18_linear_351_31)"/>
<defs>
<linearGradient id="paint0_linear_351_31" x1="721" y1="592" x2="717.476" y2="295.982" gradientUnits="userSpaceOnUse">
<stop stop-color="#FF5DA9"/>
<stop offset="1" stop-color="#5133B2"/>
</linearGradient>
<linearGradient id="paint1_linear_351_31" x1="721" y1="592" x2="717.476" y2="295.982" gradientUnits="userSpaceOnUse">
<stop stop-color="#FF5DA9"/>
<stop offset="1" stop-color="#5133B2"/>
</linearGradient>
<linearGradient id="paint2_linear_351_31" x1="721" y1="592" x2="717.476" y2="295.982" gradientUnits="userSpaceOnUse">
<stop stop-color="#FF5DA9"/>
<stop offset="1" stop-color="#5133B2"/>
</linearGradient>
<linearGradient id="paint3_linear_351_31" x1="721" y1="592" x2="717.476" y2="295.982" gradientUnits="userSpaceOnUse">
<stop stop-color="#FF5DA9"/>
<stop offset="1" stop-color="#5133B2"/>
</linearGradient>
<linearGradient id="paint4_linear_351_31" x1="721" y1="592" x2="717.476" y2="295.982" gradientUnits="userSpaceOnUse">
<stop stop-color="#FF5DA9"/>
<stop offset="1" stop-color="#5133B2"/>
</linearGradient>
<linearGradient id="paint5_linear_351_31" x1="721" y1="592" x2="717.476" y2="295.982" gradientUnits="userSpaceOnUse">
<stop stop-color="#FF5DA9"/>
<stop offset="1" stop-color="#5133B2"/>
</linearGradient>
<linearGradient id="paint6_linear_351_31" x1="721" y1="592" x2="717.476" y2="295.982" gradientUnits="userSpaceOnUse">
<stop stop-color="#FF5DA9"/>
<stop offset="1" stop-color="#5133B2"/>
</linearGradient>
<linearGradient id="paint7_linear_351_31" x1="721" y1="592" x2="717.476" y2="295.982" gradientUnits="userSpaceOnUse">
<stop stop-color="#FF5DA9"/>
<stop offset="1" stop-color="#5133B2"/>
</linearGradient>
<linearGradient id="paint8_linear_351_31" x1="721" y1="592" x2="717.476" y2="295.982" gradientUnits="userSpaceOnUse">
<stop stop-color="#FF5DA9"/>
<stop offset="1" stop-color="#5133B2"/>
</linearGradient>
<linearGradient id="paint9_linear_351_31" x1="721" y1="592" x2="717.476" y2="295.982" gradientUnits="userSpaceOnUse">
<stop stop-color="#FF5DA9"/>
<stop offset="1" stop-color="#5133B2"/>
</linearGradient>
<linearGradient id="paint10_linear_351_31" x1="721" y1="592" x2="717.476" y2="295.982" gradientUnits="userSpaceOnUse">
<stop stop-color="#FF5DA9"/>
<stop offset="1" stop-color="#5133B2"/>
</linearGradient>
<linearGradient id="paint11_linear_351_31" x1="721" y1="592" x2="717.476" y2="295.982" gradientUnits="userSpaceOnUse">
<stop stop-color="#FF5DA9"/>
<stop offset="1" stop-color="#5133B2"/>
</linearGradient>
<linearGradient id="paint12_linear_351_31" x1="721" y1="592" x2="717.476" y2="295.982" gradientUnits="userSpaceOnUse">
<stop stop-color="#FF5DA9"/>
<stop offset="1" stop-color="#5133B2"/>
</linearGradient>
<linearGradient id="paint13_linear_351_31" x1="721" y1="592" x2="717.476" y2="295.982" gradientUnits="userSpaceOnUse">
<stop stop-color="#FF5DA9"/>
<stop offset="1" stop-color="#5133B2"/>
</linearGradient>
<linearGradient id="paint14_linear_351_31" x1="721" y1="592" x2="717.476" y2="295.982" gradientUnits="userSpaceOnUse">
<stop stop-color="#FF5DA9"/>
<stop offset="1" stop-color="#5133B2"/>
</linearGradient>
<linearGradient id="paint15_linear_351_31" x1="721" y1="592" x2="717.476" y2="295.982" gradientUnits="userSpaceOnUse">
<stop stop-color="#FF5DA9"/>
<stop offset="1" stop-color="#5133B2"/>
</linearGradient>
<linearGradient id="paint16_linear_351_31" x1="721" y1="592" x2="717.476" y2="295.982" gradientUnits="userSpaceOnUse">
<stop stop-color="#FF5DA9"/>
<stop offset="1" stop-color="#5133B2"/>
</linearGradient>
<linearGradient id="paint17_linear_351_31" x1="721" y1="592" x2="717.476" y2="295.982" gradientUnits="userSpaceOnUse">
<stop stop-color="#FF5DA9"/>
<stop offset="1" stop-color="#5133B2"/>
</linearGradient>
<linearGradient id="paint18_linear_351_31" x1="721" y1="592" x2="717.476" y2="295.982" gradientUnits="userSpaceOnUse">
<stop stop-color="#FF5DA9"/>
<stop offset="1" stop-color="#5133B2"/>
</linearGradient>
</defs>
</svg>
