<svg width="1512" height="934" viewBox="0 0 1512 934" fill="none" xmlns="http://www.w3.org/2000/svg">
<path d="M106.5 307.5H99.9999L92.4999 306.5L88.4999 300L88.9999 295.5L92.4999 292L87.4999 288L86.9999 266.5L94.9999 263.5V254L98.9999 253L107 252V243.5H105V234.5H108V233.5H110V152.5L107.845 150.5L106.5 146L109 142L112 138V85.0001H113.5V61.0001H116V35.0001H116.5V0L119 7.62939e-05V35.0001H119.5V61.0001H122V85.0001H123.5V138L127 142L129.5 146L128 150.5L125.5 152.5L126 200.5V233.5H128V234.5H130.5V243.5H129V252L137 253L141 254V263.5L149 266.5L148 288L143 292L148 298.5L143 306.5L136 307.5H129.5L142 676L144 781.5H91.4999L93.4999 676L106.5 307.5Z" fill="url(#paint0_linear_346_4)"/>
<path d="M594.933 880V886.5L592.998 894L580.422 898L571.716 897.5L564.944 894L557.205 899L530.5 934L509.804 891.5H491.424L489.49 887.5L487.555 879.5H471.109V881.5H453.697V878.5H451.762V876.5H295.048L291.179 878.655L282.472 880L274.733 877.5L266.994 874.5H164.453V873H118.019V870.5H67.7161V870H0L0.000147609 867.5H67.7161V867H118.019V864.5H164.453V863H266.994L274.733 859.5L282.472 857L291.179 858.5L295.048 861L387.916 860.5H451.762V858.5H453.697V856H471.109V857.5H487.555L489.49 849.5L491.424 845.5H509.804L515.608 837.5L557.205 838.5L564.944 843.5L577.52 838.5L592.998 843.5L594.933 850.5V857L1307.88 844.5L1512 842.5V895L1307.88 893L594.933 880Z" fill="url(#paint1_linear_346_4)"/>
<defs>
<linearGradient id="paint0_linear_346_4" x1="756" y1="885" x2="676.982" y2="382.914" gradientUnits="userSpaceOnUse">
<stop stop-color="#FF5DA9"/>
<stop offset="0.811667" stop-color="#7799E4"/>
</linearGradient>
<linearGradient id="paint1_linear_346_4" x1="756" y1="885" x2="676.982" y2="382.914" gradientUnits="userSpaceOnUse">
<stop stop-color="#FF5DA9"/>
<stop offset="0.811667" stop-color="#7799E4"/>
</linearGradient>
</defs>
</svg>
