<svg width="1187" height="235" viewBox="0 0 1187 235" fill="none" xmlns="http://www.w3.org/2000/svg">
<path d="M0.5 122.402H3V134.273H57.5V110.531H60L61.5 -138.768H0.5V122.402Z" fill="url(#paint0_linear_260_11)"/>
<path d="M140 63.5397V98.6592H159.5V102.616H175.5V98.6592H188L189.5 107.563L197.5 102.616V-172.404H136.5L140 63.5397Z" fill="url(#paint1_linear_260_11)"/>
<path d="M167.5 -34.8939H228.5V-162.511H167.5V-34.8939Z" fill="url(#paint2_linear_260_11)"/>
<path d="M228.5 100.638L233.5 101.627V111.52L239.5 113.993L241.5 111.025H256L257.5 112.509L263.5 112.014V100.143H267.5V-162.511H228.5V100.638Z" fill="url(#paint3_linear_260_11)"/>
<path d="M319.5 59.0879L324 63.045H378.5V-211.975H320.5L319.5 59.0879Z" fill="url(#paint4_linear_260_11)"/>
<path d="M293.5 22.9791H299V26.4416H320.5V-120.961H293.5V22.9791Z" fill="url(#paint5_linear_260_11)"/>
<path d="M378.5 16.5488H405.5V-132.833H378.5V16.5488Z" fill="url(#paint6_linear_260_11)"/>
<path d="M405.5 68.9807H466.5V-206.04H405.5V68.9807Z" fill="url(#paint7_linear_260_11)"/>
<path d="M494.5 51.6683H504V63.045H555.5V-211.975H494.5V51.6683Z" fill="url(#paint8_linear_260_11)"/>
<path d="M545.5 90.7449H577.5V-184.275H545.5V90.7449Z" fill="url(#paint9_linear_260_11)"/>
<path d="M570.5 129.327H575.5V131.8H590V129.327H612.5V-145.693H570.5V129.327Z" fill="url(#paint10_linear_260_11)"/>
<path d="M617.5 136.747L625.5 142.188H692.5V-132.833H617.5V136.747Z" fill="url(#paint11_linear_260_11)"/>
<path d="M692.5 198.082L695.5 198.577V206.986L698.5 207.48V215.394L711 219.352L738.5 218.857V210.448H741.5V-56.6581H692.5V198.082Z" fill="url(#paint12_linear_260_11)"/>
<path d="M770.5 223.309L774.5 224.298V231.223L784.5 234.191H815V228.255H819.5V-46.7653H770.5V223.309Z" fill="url(#paint13_linear_260_11)"/>
<path d="M819.5 154.059H848.5V-120.961H819.5V154.059Z" fill="url(#paint14_linear_260_11)"/>
<path d="M854.5 141.198H861.5V156.038L872.5 160.489V176.812H868.5V184.727L872.5 186.705L875.5 197.587L879 186.705L882.5 184.727V176.812H879V160.489L890 157.027V141.198H895.5V-109.09H854.5V141.198Z" fill="url(#paint15_linear_260_11)"/>
<path d="M895.5 121.413H917V118.445H925V121.413L929.5 122.897H950.5V118.939H954.5V106.573H959V88.7664H964.5V-153.608H895.5V121.413Z" fill="url(#paint16_linear_260_11)"/>
<path d="M964.5 27.4308H977.5V23.4738H985.5V7.15057H1001.5L1002.5 -132.833H964.5V27.4308Z" fill="url(#paint17_linear_260_11)"/>
<path d="M1140.5 40.2915H1176.5V33.3666H1184V23.4738H1187V-109.09H1140.5V40.2915Z" fill="url(#paint18_linear_260_11)"/>
<defs>
<linearGradient id="paint0_linear_260_11" x1="511.5" y1="-244.622" x2="466.962" y2="249.117" gradientUnits="userSpaceOnUse">
<stop stop-color="#FF5DA9"/>
<stop offset="0.811667" stop-color="#7799E4"/>
</linearGradient>
<linearGradient id="paint1_linear_260_11" x1="511.5" y1="-244.622" x2="466.962" y2="249.117" gradientUnits="userSpaceOnUse">
<stop stop-color="#FF5DA9"/>
<stop offset="0.811667" stop-color="#7799E4"/>
</linearGradient>
<linearGradient id="paint2_linear_260_11" x1="511.5" y1="-244.622" x2="466.962" y2="249.117" gradientUnits="userSpaceOnUse">
<stop stop-color="#FF5DA9"/>
<stop offset="0.811667" stop-color="#7799E4"/>
</linearGradient>
<linearGradient id="paint3_linear_260_11" x1="511.5" y1="-244.622" x2="466.962" y2="249.117" gradientUnits="userSpaceOnUse">
<stop stop-color="#FF5DA9"/>
<stop offset="0.811667" stop-color="#7799E4"/>
</linearGradient>
<linearGradient id="paint4_linear_260_11" x1="511.5" y1="-244.622" x2="466.962" y2="249.117" gradientUnits="userSpaceOnUse">
<stop stop-color="#FF5DA9"/>
<stop offset="0.811667" stop-color="#7799E4"/>
</linearGradient>
<linearGradient id="paint5_linear_260_11" x1="511.5" y1="-244.622" x2="466.962" y2="249.117" gradientUnits="userSpaceOnUse">
<stop stop-color="#FF5DA9"/>
<stop offset="0.811667" stop-color="#7799E4"/>
</linearGradient>
<linearGradient id="paint6_linear_260_11" x1="511.5" y1="-244.622" x2="466.962" y2="249.117" gradientUnits="userSpaceOnUse">
<stop stop-color="#FF5DA9"/>
<stop offset="0.811667" stop-color="#7799E4"/>
</linearGradient>
<linearGradient id="paint7_linear_260_11" x1="511.5" y1="-244.622" x2="466.962" y2="249.117" gradientUnits="userSpaceOnUse">
<stop stop-color="#FF5DA9"/>
<stop offset="0.811667" stop-color="#7799E4"/>
</linearGradient>
<linearGradient id="paint8_linear_260_11" x1="511.5" y1="-244.622" x2="466.962" y2="249.117" gradientUnits="userSpaceOnUse">
<stop stop-color="#FF5DA9"/>
<stop offset="0.811667" stop-color="#7799E4"/>
</linearGradient>
<linearGradient id="paint9_linear_260_11" x1="511.5" y1="-244.622" x2="466.962" y2="249.117" gradientUnits="userSpaceOnUse">
<stop stop-color="#FF5DA9"/>
<stop offset="0.811667" stop-color="#7799E4"/>
</linearGradient>
<linearGradient id="paint10_linear_260_11" x1="511.5" y1="-244.622" x2="466.962" y2="249.117" gradientUnits="userSpaceOnUse">
<stop stop-color="#FF5DA9"/>
<stop offset="0.811667" stop-color="#7799E4"/>
</linearGradient>
<linearGradient id="paint11_linear_260_11" x1="511.5" y1="-244.622" x2="466.962" y2="249.117" gradientUnits="userSpaceOnUse">
<stop stop-color="#FF5DA9"/>
<stop offset="0.811667" stop-color="#7799E4"/>
</linearGradient>
<linearGradient id="paint12_linear_260_11" x1="511.5" y1="-244.622" x2="466.962" y2="249.117" gradientUnits="userSpaceOnUse">
<stop stop-color="#FF5DA9"/>
<stop offset="0.811667" stop-color="#7799E4"/>
</linearGradient>
<linearGradient id="paint13_linear_260_11" x1="511.5" y1="-244.622" x2="466.962" y2="249.117" gradientUnits="userSpaceOnUse">
<stop stop-color="#FF5DA9"/>
<stop offset="0.811667" stop-color="#7799E4"/>
</linearGradient>
<linearGradient id="paint14_linear_260_11" x1="511.5" y1="-244.622" x2="466.962" y2="249.117" gradientUnits="userSpaceOnUse">
<stop stop-color="#FF5DA9"/>
<stop offset="0.811667" stop-color="#7799E4"/>
</linearGradient>
<linearGradient id="paint15_linear_260_11" x1="511.5" y1="-244.622" x2="466.962" y2="249.117" gradientUnits="userSpaceOnUse">
<stop stop-color="#FF5DA9"/>
<stop offset="0.811667" stop-color="#7799E4"/>
</linearGradient>
<linearGradient id="paint16_linear_260_11" x1="511.5" y1="-244.622" x2="466.962" y2="249.117" gradientUnits="userSpaceOnUse">
<stop stop-color="#FF5DA9"/>
<stop offset="0.811667" stop-color="#7799E4"/>
</linearGradient>
<linearGradient id="paint17_linear_260_11" x1="511.5" y1="-244.622" x2="466.962" y2="249.117" gradientUnits="userSpaceOnUse">
<stop stop-color="#FF5DA9"/>
<stop offset="0.811667" stop-color="#7799E4"/>
</linearGradient>
<linearGradient id="paint18_linear_260_11" x1="511.5" y1="-244.622" x2="466.962" y2="249.117" gradientUnits="userSpaceOnUse">
<stop stop-color="#FF5DA9"/>
<stop offset="0.811667" stop-color="#7799E4"/>
</linearGradient>
</defs>
</svg>
