<svg width="1512" height="120" viewBox="0 0 1512 120" fill="none" xmlns="http://www.w3.org/2000/svg">
<path d="M498 13.0863H558V-128.381H618V56.6147H693.5V-73.9705H809V-119.477H892.5V48.2058L907.5 49.6897V58.5932H938.5V64.5289H955.5V70.4646H984V62.0557H997V-167.952H1021V51.6683L1034.5 53.1522V59.0879H1122.5V51.6683V-141.242H1214.5V76.895H1216.5V90.2503H1220.5V94.702H1224.5V108.057H1232V114.982H1255H1262.5V119.929H1274.5V117.456H1284.5V112.014H1300.5V-97.7133H1330.5V29.4094H1345V45.7326H1392V39.3022H1400V29.4094H1403V-18.5707H1445V-33.41H1464V-141.242H1548V-302H-12V-49.2385H40.5V-78.4223H62.5V-97.7133H124V-128.381H231.5V-105.133H295V56.6147H392.5V-160.533H498V13.0863Z" fill="#2B1B50"/>
</svg>
