<svg width="1512" height="427" viewBox="0 0 1512 427" fill="none" xmlns="http://www.w3.org/2000/svg">
<path d="M498 108.5H558V251.5H618V64.5H693.5V196.5H809V242.5H892.5V73L907.5 71.5V62.5H938.5V56.5H955.5V50.5H984V59H997V291.5H1021V69.5L1034.5 68V62H1122.5V69.5V264.5H1214.5V44H1216.5V30.5H1220.5V26H1224.5V12.5H1232V5.5H1255H1262.5V0.5H1274.5V3H1284.5V8.5H1300.5V220.5H1330.5V92H1345V75.5H1392V82H1400V92H1403V140.5H1445V155.5H1464V264.5H1512V427H0V171.5H40.5V201H62.5V220.5H124V251.5H231.5V228H295V64.5H392.5V284H498V108.5Z" fill="#2B1B50"/>
</svg>
