<svg width="1512" height="543" viewBox="0 0 1512 543" fill="none" xmlns="http://www.w3.org/2000/svg">
<path d="M218.501 430.002H221.001V442.002H275.501V418.002H278.001L279.501 0H218.501V430.002Z" fill="url(#paint0_linear_344_9)"/>
<path d="M358.001 370.502V406.002H377.501V410.002H393.501V406.002H406.001L407.501 415.002L415.501 410.002V0H385.001H354.501L358.001 370.502Z" fill="url(#paint1_linear_344_9)"/>
<path d="M415.501 271.002H446.501V0H415.501V271.002Z" fill="url(#paint2_linear_344_9)"/>
<path d="M446.501 408.002L451.501 409.002V419.002L457.501 421.502L459.501 418.502H474.001L475.501 420.002L481.501 419.502V407.502H485.501V0H446.501V408.002Z" fill="url(#paint3_linear_344_9)"/>
<path d="M537.501 366.002L542.001 370.002H596.501V0H538.501L537.501 366.002Z" fill="url(#paint4_linear_344_9)"/>
<path d="M511.501 329.502H517.001V333.002H538.501V0H511.501V329.502Z" fill="url(#paint5_linear_344_9)"/>
<path d="M596.501 323.002H623.501V0H596.501V323.002Z" fill="url(#paint6_linear_344_9)"/>
<path d="M623.501 376.002H684.501V0H623.501V376.002Z" fill="url(#paint7_linear_344_9)"/>
<path d="M712.501 358.502H722.001V370.002H763.501V0H712.501V358.502Z" fill="url(#paint8_linear_344_9)"/>
<path d="M763.501 398.002H788.501V0H763.501V398.002Z" fill="url(#paint9_linear_344_9)"/>
<path d="M788.501 437.002H793.501V439.502H808.001V437.002H830.501V0H788.501V437.002Z" fill="url(#paint10_linear_344_9)"/>
<path d="M835.501 444.502L843.501 450.002H910.501V0H835.501V444.502Z" fill="url(#paint11_linear_344_9)"/>
<path d="M910.501 506.502L913.501 507.002V515.502L916.501 516.002V524.002L929.001 528.002L956.501 527.502V519.002H959.501V0H910.501V506.502Z" fill="url(#paint12_linear_344_9)"/>
<path d="M988.501 532.002L992.501 533.002V540.002L1002.5 543.002H1033V537.002H1037.5V0H988.501V532.002Z" fill="url(#paint13_linear_344_9)"/>
<path d="M1037.5 462.002H1066.5V0H1037.5V462.002Z" fill="url(#paint14_linear_344_9)"/>
<path d="M1072.5 449.002H1079.5V464.002L1090.5 468.502V485.002H1086.5V493.002L1090.5 495.002L1093.5 506.002L1097 495.002L1100.5 493.002V485.002H1097V468.502L1108 465.002V449.002H1113.5V0H1072.5V449.002Z" fill="url(#paint15_linear_344_9)"/>
<path d="M1113.5 429.002H1135V426.002H1143V429.002L1147.5 430.502H1168.5V426.502H1172.5V414.002H1177V396.002H1182.5V0H1113.5V429.002Z" fill="url(#paint16_linear_344_9)"/>
<path d="M1182.5 334.002H1195.5V330.002H1203.5V313.502H1219.5L1220.5 0H1182.5V334.002Z" fill="url(#paint17_linear_344_9)"/>
<path d="M1358.5 347.002H1394.5V340.002H1402V330.002H1405V0H1358.5V347.002Z" fill="url(#paint18_linear_344_9)"/>
<path d="M0 217.002H2.5V229.002H57V205.002H59.5V0H0V217.002Z" fill="url(#paint19_linear_344_9)"/>
<path d="M1451.5 208.002H1454V220.002H1508.5V0H1512H1451.5V208.002Z" fill="url(#paint20_linear_344_9)"/>
<defs>
<linearGradient id="paint0_linear_344_9" x1="729.5" y1="59.0038" x2="684" y2="558.004" gradientUnits="userSpaceOnUse">
<stop stop-color="#FF5DA9"/>
<stop offset="0.811667" stop-color="#7799E4"/>
</linearGradient>
<linearGradient id="paint1_linear_344_9" x1="729.5" y1="59.0038" x2="684" y2="558.004" gradientUnits="userSpaceOnUse">
<stop stop-color="#FF5DA9"/>
<stop offset="0.811667" stop-color="#7799E4"/>
</linearGradient>
<linearGradient id="paint2_linear_344_9" x1="729.5" y1="59.0038" x2="684" y2="558.004" gradientUnits="userSpaceOnUse">
<stop stop-color="#FF5DA9"/>
<stop offset="0.811667" stop-color="#7799E4"/>
</linearGradient>
<linearGradient id="paint3_linear_344_9" x1="729.5" y1="59.0038" x2="684" y2="558.004" gradientUnits="userSpaceOnUse">
<stop stop-color="#FF5DA9"/>
<stop offset="0.811667" stop-color="#7799E4"/>
</linearGradient>
<linearGradient id="paint4_linear_344_9" x1="729.5" y1="59.0038" x2="684" y2="558.004" gradientUnits="userSpaceOnUse">
<stop stop-color="#FF5DA9"/>
<stop offset="0.811667" stop-color="#7799E4"/>
</linearGradient>
<linearGradient id="paint5_linear_344_9" x1="729.5" y1="59.0038" x2="684" y2="558.004" gradientUnits="userSpaceOnUse">
<stop stop-color="#FF5DA9"/>
<stop offset="0.811667" stop-color="#7799E4"/>
</linearGradient>
<linearGradient id="paint6_linear_344_9" x1="729.5" y1="59.0038" x2="684" y2="558.004" gradientUnits="userSpaceOnUse">
<stop stop-color="#FF5DA9"/>
<stop offset="0.811667" stop-color="#7799E4"/>
</linearGradient>
<linearGradient id="paint7_linear_344_9" x1="729.5" y1="59.0038" x2="684" y2="558.004" gradientUnits="userSpaceOnUse">
<stop stop-color="#FF5DA9"/>
<stop offset="0.811667" stop-color="#7799E4"/>
</linearGradient>
<linearGradient id="paint8_linear_344_9" x1="729.5" y1="59.0038" x2="684" y2="558.004" gradientUnits="userSpaceOnUse">
<stop stop-color="#FF5DA9"/>
<stop offset="0.811667" stop-color="#7799E4"/>
</linearGradient>
<linearGradient id="paint9_linear_344_9" x1="729.5" y1="59.0038" x2="684" y2="558.004" gradientUnits="userSpaceOnUse">
<stop stop-color="#FF5DA9"/>
<stop offset="0.811667" stop-color="#7799E4"/>
</linearGradient>
<linearGradient id="paint10_linear_344_9" x1="729.5" y1="59.0038" x2="684" y2="558.004" gradientUnits="userSpaceOnUse">
<stop stop-color="#FF5DA9"/>
<stop offset="0.811667" stop-color="#7799E4"/>
</linearGradient>
<linearGradient id="paint11_linear_344_9" x1="729.5" y1="59.0038" x2="684" y2="558.004" gradientUnits="userSpaceOnUse">
<stop stop-color="#FF5DA9"/>
<stop offset="0.811667" stop-color="#7799E4"/>
</linearGradient>
<linearGradient id="paint12_linear_344_9" x1="729.5" y1="59.0038" x2="684" y2="558.004" gradientUnits="userSpaceOnUse">
<stop stop-color="#FF5DA9"/>
<stop offset="0.811667" stop-color="#7799E4"/>
</linearGradient>
<linearGradient id="paint13_linear_344_9" x1="729.5" y1="59.0038" x2="684" y2="558.004" gradientUnits="userSpaceOnUse">
<stop stop-color="#FF5DA9"/>
<stop offset="0.811667" stop-color="#7799E4"/>
</linearGradient>
<linearGradient id="paint14_linear_344_9" x1="729.5" y1="59.0038" x2="684" y2="558.004" gradientUnits="userSpaceOnUse">
<stop stop-color="#FF5DA9"/>
<stop offset="0.811667" stop-color="#7799E4"/>
</linearGradient>
<linearGradient id="paint15_linear_344_9" x1="729.5" y1="59.0038" x2="684" y2="558.004" gradientUnits="userSpaceOnUse">
<stop stop-color="#FF5DA9"/>
<stop offset="0.811667" stop-color="#7799E4"/>
</linearGradient>
<linearGradient id="paint16_linear_344_9" x1="729.5" y1="59.0038" x2="684" y2="558.004" gradientUnits="userSpaceOnUse">
<stop stop-color="#FF5DA9"/>
<stop offset="0.811667" stop-color="#7799E4"/>
</linearGradient>
<linearGradient id="paint17_linear_344_9" x1="729.5" y1="59.0038" x2="684" y2="558.004" gradientUnits="userSpaceOnUse">
<stop stop-color="#FF5DA9"/>
<stop offset="0.811667" stop-color="#7799E4"/>
</linearGradient>
<linearGradient id="paint18_linear_344_9" x1="729.5" y1="59.0038" x2="684" y2="558.004" gradientUnits="userSpaceOnUse">
<stop stop-color="#FF5DA9"/>
<stop offset="0.811667" stop-color="#7799E4"/>
</linearGradient>
<linearGradient id="paint19_linear_344_9" x1="729.5" y1="59.0038" x2="684" y2="558.004" gradientUnits="userSpaceOnUse">
<stop stop-color="#FF5DA9"/>
<stop offset="0.811667" stop-color="#7799E4"/>
</linearGradient>
<linearGradient id="paint20_linear_344_9" x1="729.5" y1="59.0038" x2="684" y2="558.004" gradientUnits="userSpaceOnUse">
<stop stop-color="#FF5DA9"/>
<stop offset="0.811667" stop-color="#7799E4"/>
</linearGradient>
</defs>
</svg>
