<svg width="1318" height="842" viewBox="0 0 1318 842" fill="none" xmlns="http://www.w3.org/2000/svg">
<path d="M19.5 307.5H13L5.5 306.5L1.5 300L2 295.5L5.5 292L0.5 288L0 266.5L8 263.5V254L12 253L20 252V243.5H18V234.5H21V233.5H23V152.5L20.8448 150.5L19.5 146L22 142L25 138V85.0001H26.5V61.0001H29V35.0001H29.5V0L32 7.03931e-05V35.0001H32.5V61.0001H35V85.0001H36.5V138L40 142L42.5 146L41 150.5L38.5 152.5L39 200.5V233.5H41V234.5H43.5V243.5H42V252L50 253L54 254V263.5L62 266.5L61 288L56 292L61 298.5L56 306.5L49 307.5H42.5L55 676L57 781.5H4.5L6.5 676L19.5 307.5Z" fill="url(#paint0_linear_239_85)"/>
<path d="M131.5 504H134V492H188.5V516H191L192.5 768H131.5V504Z" fill="url(#paint1_linear_239_85)"/>
<path d="M271 563.5V528H290.5V524H306.5V528H319L320.5 519L328.5 524V802H267.5L271 563.5Z" fill="url(#paint2_linear_239_85)"/>
<path d="M298.5 663H359.5V792H298.5V663Z" fill="url(#paint3_linear_239_85)"/>
<path d="M359.5 526L364.5 525V515L370.5 512.5L372.5 515.5H387L388.5 514L394.5 514.5V526.5H398.5V792H359.5V526Z" fill="url(#paint4_linear_239_85)"/>
<path d="M450.5 568L455 564H509.5V842H451.5L450.5 568Z" fill="url(#paint5_linear_239_85)"/>
<path d="M424.5 604.5H430V601H451.5V750H424.5V604.5Z" fill="url(#paint6_linear_239_85)"/>
<path d="M509.5 611H536.5V762H509.5V611Z" fill="url(#paint7_linear_239_85)"/>
<path d="M536.5 558H597.5V836H536.5V558Z" fill="url(#paint8_linear_239_85)"/>
<path d="M625.5 575.5H635V564H686.5V842H625.5V575.5Z" fill="url(#paint9_linear_239_85)"/>
<path d="M676.5 536H708.5V814H676.5V536Z" fill="url(#paint10_linear_239_85)"/>
<path d="M701.5 497H706.5V494.5H721V497H743.5V775H701.5V497Z" fill="url(#paint11_linear_239_85)"/>
<path d="M748.5 489.5L756.5 484H823.5V762H748.5V489.5Z" fill="url(#paint12_linear_239_85)"/>
<path d="M823.5 427.5L826.5 427V418.5L829.5 418V410L842 406L869.5 406.5V415H872.5V685H823.5V427.5Z" fill="url(#paint13_linear_239_85)"/>
<path d="M901.5 402L905.5 401V394L915.5 391H946V397H950.5V675H901.5V402Z" fill="url(#paint14_linear_239_85)"/>
<path d="M950.5 472H979.5V750H950.5V472Z" fill="url(#paint15_linear_239_85)"/>
<path d="M985.5 485H992.5V470L1003.5 465.5V449H999.5V441L1003.5 439L1006.5 428L1010 439L1013.5 441V449H1010V465.5L1021 469V485H1026.5V738H985.5V485Z" fill="url(#paint16_linear_239_85)"/>
<path d="M1026.5 505H1048V508H1056V505L1060.5 503.5H1081.5V507.5H1085.5V520H1090V538H1095.5V783H1026.5V505Z" fill="url(#paint17_linear_239_85)"/>
<path d="M1095.5 600H1108.5V604H1116.5V620.5H1132.5L1133.5 762H1095.5V600Z" fill="url(#paint18_linear_239_85)"/>
<path d="M1271.5 587H1307.5V594H1315V604H1318V738H1271.5V587Z" fill="url(#paint19_linear_239_85)"/>
<defs>
<linearGradient id="paint0_linear_239_85" x1="642.5" y1="875" x2="597" y2="376" gradientUnits="userSpaceOnUse">
<stop stop-color="#FF5DA9"/>
<stop offset="0.811667" stop-color="#7799E4"/>
</linearGradient>
<linearGradient id="paint1_linear_239_85" x1="642.5" y1="875" x2="597" y2="376" gradientUnits="userSpaceOnUse">
<stop stop-color="#FF5DA9"/>
<stop offset="0.811667" stop-color="#7799E4"/>
</linearGradient>
<linearGradient id="paint2_linear_239_85" x1="642.5" y1="875" x2="597" y2="376" gradientUnits="userSpaceOnUse">
<stop stop-color="#FF5DA9"/>
<stop offset="0.811667" stop-color="#7799E4"/>
</linearGradient>
<linearGradient id="paint3_linear_239_85" x1="642.5" y1="875" x2="597" y2="376" gradientUnits="userSpaceOnUse">
<stop stop-color="#FF5DA9"/>
<stop offset="0.811667" stop-color="#7799E4"/>
</linearGradient>
<linearGradient id="paint4_linear_239_85" x1="642.5" y1="875" x2="597" y2="376" gradientUnits="userSpaceOnUse">
<stop stop-color="#FF5DA9"/>
<stop offset="0.811667" stop-color="#7799E4"/>
</linearGradient>
<linearGradient id="paint5_linear_239_85" x1="642.5" y1="875" x2="597" y2="376" gradientUnits="userSpaceOnUse">
<stop stop-color="#FF5DA9"/>
<stop offset="0.811667" stop-color="#7799E4"/>
</linearGradient>
<linearGradient id="paint6_linear_239_85" x1="642.5" y1="875" x2="597" y2="376" gradientUnits="userSpaceOnUse">
<stop stop-color="#FF5DA9"/>
<stop offset="0.811667" stop-color="#7799E4"/>
</linearGradient>
<linearGradient id="paint7_linear_239_85" x1="642.5" y1="875" x2="597" y2="376" gradientUnits="userSpaceOnUse">
<stop stop-color="#FF5DA9"/>
<stop offset="0.811667" stop-color="#7799E4"/>
</linearGradient>
<linearGradient id="paint8_linear_239_85" x1="642.5" y1="875" x2="597" y2="376" gradientUnits="userSpaceOnUse">
<stop stop-color="#FF5DA9"/>
<stop offset="0.811667" stop-color="#7799E4"/>
</linearGradient>
<linearGradient id="paint9_linear_239_85" x1="642.5" y1="875" x2="597" y2="376" gradientUnits="userSpaceOnUse">
<stop stop-color="#FF5DA9"/>
<stop offset="0.811667" stop-color="#7799E4"/>
</linearGradient>
<linearGradient id="paint10_linear_239_85" x1="642.5" y1="875" x2="597" y2="376" gradientUnits="userSpaceOnUse">
<stop stop-color="#FF5DA9"/>
<stop offset="0.811667" stop-color="#7799E4"/>
</linearGradient>
<linearGradient id="paint11_linear_239_85" x1="642.5" y1="875" x2="597" y2="376" gradientUnits="userSpaceOnUse">
<stop stop-color="#FF5DA9"/>
<stop offset="0.811667" stop-color="#7799E4"/>
</linearGradient>
<linearGradient id="paint12_linear_239_85" x1="642.5" y1="875" x2="597" y2="376" gradientUnits="userSpaceOnUse">
<stop stop-color="#FF5DA9"/>
<stop offset="0.811667" stop-color="#7799E4"/>
</linearGradient>
<linearGradient id="paint13_linear_239_85" x1="642.5" y1="875" x2="597" y2="376" gradientUnits="userSpaceOnUse">
<stop stop-color="#FF5DA9"/>
<stop offset="0.811667" stop-color="#7799E4"/>
</linearGradient>
<linearGradient id="paint14_linear_239_85" x1="642.5" y1="875" x2="597" y2="376" gradientUnits="userSpaceOnUse">
<stop stop-color="#FF5DA9"/>
<stop offset="0.811667" stop-color="#7799E4"/>
</linearGradient>
<linearGradient id="paint15_linear_239_85" x1="642.5" y1="875" x2="597" y2="376" gradientUnits="userSpaceOnUse">
<stop stop-color="#FF5DA9"/>
<stop offset="0.811667" stop-color="#7799E4"/>
</linearGradient>
<linearGradient id="paint16_linear_239_85" x1="642.5" y1="875" x2="597" y2="376" gradientUnits="userSpaceOnUse">
<stop stop-color="#FF5DA9"/>
<stop offset="0.811667" stop-color="#7799E4"/>
</linearGradient>
<linearGradient id="paint17_linear_239_85" x1="642.5" y1="875" x2="597" y2="376" gradientUnits="userSpaceOnUse">
<stop stop-color="#FF5DA9"/>
<stop offset="0.811667" stop-color="#7799E4"/>
</linearGradient>
<linearGradient id="paint18_linear_239_85" x1="642.5" y1="875" x2="597" y2="376" gradientUnits="userSpaceOnUse">
<stop stop-color="#FF5DA9"/>
<stop offset="0.811667" stop-color="#7799E4"/>
</linearGradient>
<linearGradient id="paint19_linear_239_85" x1="642.5" y1="875" x2="597" y2="376" gradientUnits="userSpaceOnUse">
<stop stop-color="#FF5DA9"/>
<stop offset="0.811667" stop-color="#7799E4"/>
</linearGradient>
</defs>
</svg>
