<svg width="1512" height="347" viewBox="0 0 1512 347" fill="none" xmlns="http://www.w3.org/2000/svg">
<path d="M219 195.5H266L266 8.5L219 8.5V195.5Z" fill="url(#paint0_linear_344_5)"/>
<path d="M266 216.5H278V225.5L313 216.5L313 29.5H266L266 216.5Z" fill="url(#paint1_linear_344_5)"/>
<path d="M388 219.5L401 223H436L436 40.5H389L388 219.5Z" fill="url(#paint2_linear_344_5)"/>
<path d="M459 307.5L466.5 309.5H503.5V306.5H506L506 54.5H459L459 307.5Z" fill="url(#paint3_linear_344_5)"/>
<path d="M524 238.5L531.5 240.5H573V54.5H524V238.5Z" fill="url(#paint4_linear_344_5)"/>
<path d="M573 226.5H587.5V233.5H606.5V230.5H622V226.5V40.5H573V226.5Z" fill="url(#paint5_linear_344_5)"/>
<path d="M681 226.5H704.5V239H716V250L767 250V226.5V40.5L681 40.5V226.5Z" fill="url(#paint6_linear_344_5)"/>
<path d="M801 315.5V334H817V329.5H842.5V344.5H914V315.5V17.5H801V315.5Z" fill="url(#paint7_linear_344_5)"/>
<path d="M923 299.5H955.5V309H995.5V299.5H1036V40.5H923V299.5Z" fill="url(#paint8_linear_344_5)"/>
<path d="M1048 258H1172V36L1048 32V258Z" fill="url(#paint9_linear_344_5)"/>
<path d="M1172 206.5H1234V50.5L1172 36V206.5Z" fill="url(#paint10_linear_344_5)"/>
<path d="M1289 329.5H1299V307.5H1316.5L1328 347L1363 337.5V50.5H1289V329.5Z" fill="url(#paint11_linear_344_5)"/>
<path d="M1459 253H1464V251H1477.5V257H1472.5V269.5H1480V282H1512V53.5H1459V253Z" fill="url(#paint12_linear_344_5)"/>
<path d="M1395 256.5H1401V242.5H1415V250H1422.5V253H1459V22.5H1395V256.5Z" fill="url(#paint13_linear_344_5)"/>
<path d="M172 177.5L181.5 182H219V0.5H172V177.5Z" fill="url(#paint14_linear_344_5)"/>
<path d="M12.5 261H20.5V269H42.5V276.5H59.5L59.5 258L65.5 249.5V231H68V241H81.5V226.5H89L89 40.5H0L0 216.5H12.5L12.5 261Z" fill="url(#paint15_linear_344_5)"/>
<defs>
<linearGradient id="paint0_linear_344_5" x1="799" y1="-170.5" x2="792" y2="291" gradientUnits="userSpaceOnUse">
<stop offset="0.121667" stop-color="#993865"/>
<stop offset="1" stop-color="#401986"/>
</linearGradient>
<linearGradient id="paint1_linear_344_5" x1="799" y1="-170.5" x2="792" y2="291" gradientUnits="userSpaceOnUse">
<stop offset="0.121667" stop-color="#993865"/>
<stop offset="1" stop-color="#401986"/>
</linearGradient>
<linearGradient id="paint2_linear_344_5" x1="799" y1="-170.5" x2="792" y2="291" gradientUnits="userSpaceOnUse">
<stop offset="0.121667" stop-color="#993865"/>
<stop offset="1" stop-color="#401986"/>
</linearGradient>
<linearGradient id="paint3_linear_344_5" x1="799" y1="-170.5" x2="792" y2="291" gradientUnits="userSpaceOnUse">
<stop offset="0.121667" stop-color="#993865"/>
<stop offset="1" stop-color="#401986"/>
</linearGradient>
<linearGradient id="paint4_linear_344_5" x1="799" y1="-170.5" x2="792" y2="291" gradientUnits="userSpaceOnUse">
<stop offset="0.121667" stop-color="#993865"/>
<stop offset="1" stop-color="#401986"/>
</linearGradient>
<linearGradient id="paint5_linear_344_5" x1="799" y1="-170.5" x2="792" y2="291" gradientUnits="userSpaceOnUse">
<stop offset="0.121667" stop-color="#993865"/>
<stop offset="1" stop-color="#401986"/>
</linearGradient>
<linearGradient id="paint6_linear_344_5" x1="799" y1="-170.5" x2="792" y2="291" gradientUnits="userSpaceOnUse">
<stop offset="0.121667" stop-color="#993865"/>
<stop offset="1" stop-color="#401986"/>
</linearGradient>
<linearGradient id="paint7_linear_344_5" x1="799" y1="-170.5" x2="792" y2="291" gradientUnits="userSpaceOnUse">
<stop offset="0.121667" stop-color="#993865"/>
<stop offset="1" stop-color="#401986"/>
</linearGradient>
<linearGradient id="paint8_linear_344_5" x1="799" y1="-170.5" x2="792" y2="291" gradientUnits="userSpaceOnUse">
<stop offset="0.121667" stop-color="#993865"/>
<stop offset="1" stop-color="#401986"/>
</linearGradient>
<linearGradient id="paint9_linear_344_5" x1="799" y1="-170.5" x2="792" y2="291" gradientUnits="userSpaceOnUse">
<stop offset="0.121667" stop-color="#993865"/>
<stop offset="1" stop-color="#401986"/>
</linearGradient>
<linearGradient id="paint10_linear_344_5" x1="799" y1="-170.5" x2="792" y2="291" gradientUnits="userSpaceOnUse">
<stop offset="0.121667" stop-color="#993865"/>
<stop offset="1" stop-color="#401986"/>
</linearGradient>
<linearGradient id="paint11_linear_344_5" x1="799" y1="-170.5" x2="792" y2="291" gradientUnits="userSpaceOnUse">
<stop offset="0.121667" stop-color="#993865"/>
<stop offset="1" stop-color="#401986"/>
</linearGradient>
<linearGradient id="paint12_linear_344_5" x1="799" y1="-170.5" x2="792" y2="291" gradientUnits="userSpaceOnUse">
<stop offset="0.121667" stop-color="#993865"/>
<stop offset="1" stop-color="#401986"/>
</linearGradient>
<linearGradient id="paint13_linear_344_5" x1="799" y1="-170.5" x2="792" y2="291" gradientUnits="userSpaceOnUse">
<stop offset="0.121667" stop-color="#993865"/>
<stop offset="1" stop-color="#401986"/>
</linearGradient>
<linearGradient id="paint14_linear_344_5" x1="799" y1="-170.5" x2="792" y2="291" gradientUnits="userSpaceOnUse">
<stop offset="0.121667" stop-color="#993865"/>
<stop offset="1" stop-color="#401986"/>
</linearGradient>
<linearGradient id="paint15_linear_344_5" x1="799" y1="-170.5" x2="792" y2="291" gradientUnits="userSpaceOnUse">
<stop offset="0.121667" stop-color="#993865"/>
<stop offset="1" stop-color="#401986"/>
</linearGradient>
</defs>
</svg>
