<svg width="2100" height="428" viewBox="0 0 2100 428" fill="none" xmlns="http://www.w3.org/2000/svg">
<path d="M498 319.5H558V176.5H618V363.5H693.5V231.5H809V185.5H892.5V355L907.5 356.5V365.5H938.5V371.5H955.5V377.5H984V369H997V136.5H1021V358.5L1034.5 360V366H1122.5V358.5V163.5H1214.5V384H1216.5V397.5H1220.5V402H1224.5V415.5H1232V422.5H1255H1262.5V427.5H1274.5V425H1284.5V419.5H1300.5V207.5H1330.5V336H1345V352.5H1392V346H1400V336H1403V287.5H1445V272.5H1464V163.5H1539V231H1576.5V239H1607V231V107.5H1683V350H1700V358H1721.5V354.5H1728.5V350H1741V272.5H1798.5V280H1805.5V287.5H1825.5V290H1837.5V287.5H1852.25V265H1867V178.5H1913V185.5H1920V235H1929.5V243H1987.5V232H1997V107.5H2033V144H2100V0H0V256.5H40.5V227H62.5V207.5H124V176.5H231.5V200H295V363.5H392.5V144H498V319.5Z" fill="#2B1B50"/>
</svg>
