<svg width="62" height="782" viewBox="0 0 62 782" fill="none" xmlns="http://www.w3.org/2000/svg">
<path d="M19.5 307.5H13L5.5 306.5L1.5 300L2 295.5L5.5 292L0.5 288L0 266.5L8 263.5V254L12 253L20 252V243.5H18V234.5H21V233.5H23V152.5L20.8448 150.5L19.5 146L22 142L25 138V85.0001H26.5V61.0001H29V35.0001H29.5V0L32 7.62939e-05V35.0001H32.5V61.0001H35V85.0001H36.5V138L40 142L42.5 146L41 150.5L38.5 152.5L39 200.5V233.5H41V234.5H43.5V243.5H42V252L50 253L54 254V263.5L62 266.5L61 288L56 292L61 298.5L56 306.5L49 307.5H42.5L55 676L57 781.5H4.5L6.5 676L19.5 307.5Z" fill="url(#paint0_linear_317_55)"/>
<defs>
<linearGradient id="paint0_linear_317_55" x1="660.5" y1="811" x2="648.5" y2="350" gradientUnits="userSpaceOnUse">
<stop stop-color="#FF5DA9"/>
<stop offset="0.811667" stop-color="#7799E4"/>
</linearGradient>
</defs>
</svg>
