<svg width="1512" height="287" viewBox="0 0 1512 287" fill="none" xmlns="http://www.w3.org/2000/svg">
<path d="M117.155 6.06198H193.256L193.256 -154.626H117.155L117.155 6.06198Z" fill="url(#paint0_linear_346_6)"/>
<path d="M267.354 77.3606H300.397L300.397 -83.3274H267.354L267.354 77.3606Z" fill="url(#paint1_linear_346_6)"/>
<path d="M304.403 122.055L381.505 122.055L381.505 -38.6327H304.403L304.403 122.055Z" fill="url(#paint2_linear_346_6)"/>
<path d="M374.495 65.6549H451.597L451.597 -95.0332H374.495L374.495 65.6549Z" fill="url(#paint3_linear_346_6)"/>
<path d="M635.841 230.667L638.344 234.458L633.838 237.708L646.355 240.417L675.894 237.708L670.387 234.458L675.894 229.042V-126.958H635.841V230.667Z" fill="url(#paint4_linear_346_6)"/>
<path d="M690.914 287L768.016 275.826V-82.2632L690.914 -82.2632V287Z" fill="url(#paint5_linear_346_6)"/>
<path d="M822.087 252.875L830.098 258.292H840.612V264.792H877.16V258.292H893.682V-108.867H822.087V252.875Z" fill="url(#paint6_linear_346_6)"/>
<path d="M936.238 194.418H973.788L978.294 189.5H1000.32H1008.33L1007.83 -174.845H936.238V194.418Z" fill="url(#paint7_linear_346_6)"/>
<path d="M1008.33 243.369H1052.39L1079.93 238.792V-125.894H1008.33V243.369Z" fill="url(#paint8_linear_346_6)"/>
<path d="M1068.41 193.833L1134 193.833V-182.294H1062.41L1068.41 193.833Z" fill="url(#paint9_linear_346_6)"/>
<path d="M1159.53 187.333H1186.57V-187.615L1159.53 -187.615V187.333Z" fill="url(#paint10_linear_346_6)"/>
<path d="M1241.64 181.375H1253.16V177.583H1267.68V190.042H1297.72V-194H1241.64V181.375Z" fill="url(#paint11_linear_346_6)"/>
<path d="M169.224 23.0885H193.256L193.256 -137.6H169.224L169.224 23.0885Z" fill="url(#paint12_linear_346_6)"/>
<path d="M128.17 65.6549H161.213L161.213 -95.0332H128.17L128.17 65.6549Z" fill="url(#paint13_linear_346_6)"/>
<path d="M70.0927 70.9757L117.155 70.9757L117.155 -132.279H70.0927L70.0927 70.9757Z" fill="url(#paint14_linear_346_6)"/>
<path d="M42.0556 99.0417H52.5695V107.708H70.0927L73.5974 105.542V83.875L78.1033 75.75L78.1033 -91.8407H42.0556L42.0556 99.0417Z" fill="url(#paint15_linear_346_6)"/>
<path d="M0 86.5833L16.0212 86.5833L16.0212 49.75H22.5298L22.5298 92.2589H34.045L34.045 -110.996H0L0 86.5833Z" fill="url(#paint16_linear_346_6)"/>
<path d="M34.045 92.2589H70.0927L70.0927 -110.996H34.045L34.045 92.2589Z" fill="url(#paint17_linear_346_6)"/>
<path d="M1487.97 -33.312H1512V-194H1487.97V-33.312Z" fill="url(#paint18_linear_346_6)"/>
<defs>
<linearGradient id="paint0_linear_346_6" x1="717.949" y1="-152" x2="685.613" y2="90.1612" gradientUnits="userSpaceOnUse">
<stop stop-color="#FF5DA9"/>
<stop offset="1" stop-color="#5133B2"/>
</linearGradient>
<linearGradient id="paint1_linear_346_6" x1="717.949" y1="-152" x2="685.613" y2="90.1612" gradientUnits="userSpaceOnUse">
<stop stop-color="#FF5DA9"/>
<stop offset="1" stop-color="#5133B2"/>
</linearGradient>
<linearGradient id="paint2_linear_346_6" x1="717.949" y1="-152" x2="685.613" y2="90.1612" gradientUnits="userSpaceOnUse">
<stop stop-color="#FF5DA9"/>
<stop offset="1" stop-color="#5133B2"/>
</linearGradient>
<linearGradient id="paint3_linear_346_6" x1="717.949" y1="-152" x2="685.613" y2="90.1612" gradientUnits="userSpaceOnUse">
<stop stop-color="#FF5DA9"/>
<stop offset="1" stop-color="#5133B2"/>
</linearGradient>
<linearGradient id="paint4_linear_346_6" x1="717.949" y1="-152" x2="685.613" y2="90.1612" gradientUnits="userSpaceOnUse">
<stop stop-color="#FF5DA9"/>
<stop offset="1" stop-color="#5133B2"/>
</linearGradient>
<linearGradient id="paint5_linear_346_6" x1="717.949" y1="-152" x2="685.613" y2="90.1612" gradientUnits="userSpaceOnUse">
<stop stop-color="#FF5DA9"/>
<stop offset="1" stop-color="#5133B2"/>
</linearGradient>
<linearGradient id="paint6_linear_346_6" x1="717.949" y1="-152" x2="685.613" y2="90.1612" gradientUnits="userSpaceOnUse">
<stop stop-color="#FF5DA9"/>
<stop offset="1" stop-color="#5133B2"/>
</linearGradient>
<linearGradient id="paint7_linear_346_6" x1="717.949" y1="-152" x2="685.613" y2="90.1612" gradientUnits="userSpaceOnUse">
<stop stop-color="#FF5DA9"/>
<stop offset="1" stop-color="#5133B2"/>
</linearGradient>
<linearGradient id="paint8_linear_346_6" x1="717.949" y1="-152" x2="685.613" y2="90.1612" gradientUnits="userSpaceOnUse">
<stop stop-color="#FF5DA9"/>
<stop offset="1" stop-color="#5133B2"/>
</linearGradient>
<linearGradient id="paint9_linear_346_6" x1="717.949" y1="-152" x2="685.613" y2="90.1612" gradientUnits="userSpaceOnUse">
<stop stop-color="#FF5DA9"/>
<stop offset="1" stop-color="#5133B2"/>
</linearGradient>
<linearGradient id="paint10_linear_346_6" x1="717.949" y1="-152" x2="685.613" y2="90.1612" gradientUnits="userSpaceOnUse">
<stop stop-color="#FF5DA9"/>
<stop offset="1" stop-color="#5133B2"/>
</linearGradient>
<linearGradient id="paint11_linear_346_6" x1="717.949" y1="-152" x2="685.613" y2="90.1612" gradientUnits="userSpaceOnUse">
<stop stop-color="#FF5DA9"/>
<stop offset="1" stop-color="#5133B2"/>
</linearGradient>
<linearGradient id="paint12_linear_346_6" x1="717.949" y1="-152" x2="685.613" y2="90.1612" gradientUnits="userSpaceOnUse">
<stop stop-color="#FF5DA9"/>
<stop offset="1" stop-color="#5133B2"/>
</linearGradient>
<linearGradient id="paint13_linear_346_6" x1="717.949" y1="-152" x2="685.613" y2="90.1612" gradientUnits="userSpaceOnUse">
<stop stop-color="#FF5DA9"/>
<stop offset="1" stop-color="#5133B2"/>
</linearGradient>
<linearGradient id="paint14_linear_346_6" x1="717.949" y1="-152" x2="685.613" y2="90.1612" gradientUnits="userSpaceOnUse">
<stop stop-color="#FF5DA9"/>
<stop offset="1" stop-color="#5133B2"/>
</linearGradient>
<linearGradient id="paint15_linear_346_6" x1="717.949" y1="-152" x2="685.613" y2="90.1612" gradientUnits="userSpaceOnUse">
<stop stop-color="#FF5DA9"/>
<stop offset="1" stop-color="#5133B2"/>
</linearGradient>
<linearGradient id="paint16_linear_346_6" x1="717.949" y1="-152" x2="685.613" y2="90.1612" gradientUnits="userSpaceOnUse">
<stop stop-color="#FF5DA9"/>
<stop offset="1" stop-color="#5133B2"/>
</linearGradient>
<linearGradient id="paint17_linear_346_6" x1="717.949" y1="-152" x2="685.613" y2="90.1612" gradientUnits="userSpaceOnUse">
<stop stop-color="#FF5DA9"/>
<stop offset="1" stop-color="#5133B2"/>
</linearGradient>
<linearGradient id="paint18_linear_346_6" x1="717.949" y1="-152" x2="685.613" y2="90.1612" gradientUnits="userSpaceOnUse">
<stop stop-color="#FF5DA9"/>
<stop offset="1" stop-color="#5133B2"/>
</linearGradient>
</defs>
</svg>
