<svg width="2100" height="139" viewBox="0 0 2100 139" fill="none" xmlns="http://www.w3.org/2000/svg">
<path d="M219 -12.5H266V-296H219V-12.5Z" fill="url(#paint0_linear_353_52)"/>
<path d="M266 8.5H278V17.5L313 8.5V-296H266V8.5Z" fill="url(#paint1_linear_353_52)"/>
<path d="M388 11.5L401 15H436V-76.25V-296H389L388.5 -78L388 11.5Z" fill="url(#paint2_linear_353_52)"/>
<path d="M459 99.5L466.5 101.5H503.5V98.5H506V-296H459V99.5Z" fill="url(#paint3_linear_353_52)"/>
<path d="M524 30.5L531.5 32.5H573V-296H524V30.5Z" fill="url(#paint4_linear_353_52)"/>
<path d="M573 18.5H587.5V25.5H606.5V22.5H622V18.5V-296H573V18.5Z" fill="url(#paint5_linear_353_52)"/>
<path d="M681 18.5H704.5V31H716V42H767V18.5V-296H681V18.5Z" fill="url(#paint6_linear_353_52)"/>
<path d="M801 107.5V126H817V121.5H842.5V136.5H914V107.5V-296H801V107.5Z" fill="url(#paint7_linear_353_52)"/>
<path d="M923 91.5H955.5V101H995.5V91.5H1036V-296H923V91.5Z" fill="url(#paint8_linear_353_52)"/>
<path d="M1048 50H1172V-296H1048V50Z" fill="url(#paint9_linear_353_52)"/>
<path d="M1172 -1.5H1234V-296H1172V-1.5Z" fill="url(#paint10_linear_353_52)"/>
<path d="M1289 121.5H1299V99.5H1316.5L1328 139L1363 129.5V-296H1289V121.5Z" fill="url(#paint11_linear_353_52)"/>
<path d="M1459 45H1464V43H1477.5V49H1472.5V61.5H1480V74H1512V21.5H1550.5V-260H1604V-1.5L1649 10V34.5H1703.5V-260H1779V84H1792V88H1832.5V84V-260H1891.5V-1.5H1904V2.5H1913.5V6H1935.75V2.5H1958V-1.5H1968.5V31.5H1973.5V36.5H2023V-95H2046.5V-37.5H2066V28.5H2077V59H2100V-37.5V-260V-296H1512H1459V45Z" fill="url(#paint12_linear_353_52)"/>
<path d="M1395 48.5H1401V34.5H1415V42H1422.5V45H1459V-296H1395V48.5Z" fill="url(#paint13_linear_353_52)"/>
<path d="M172 -30.5L181.5 -26H219V-296H172V-30.5Z" fill="url(#paint14_linear_353_52)"/>
<path d="M12.5 53H20.5V61H42.5V68.5H59.5V50L65.5 41.5V23H68V33H81.5V18.5H89V-296H0V8.5H12.5V53Z" fill="url(#paint15_linear_353_52)"/>
<path d="M219 -12.5H266V-296H219V-12.5Z" fill="url(#paint16_linear_353_52)"/>
<defs>
<linearGradient id="paint0_linear_353_52" x1="799.001" y1="-378.5" x2="792" y2="83" gradientUnits="userSpaceOnUse">
<stop offset="0.121667" stop-color="#993865"/>
<stop offset="1" stop-color="#401986"/>
</linearGradient>
<linearGradient id="paint1_linear_353_52" x1="799.001" y1="-378.5" x2="792" y2="83" gradientUnits="userSpaceOnUse">
<stop offset="0.121667" stop-color="#993865"/>
<stop offset="1" stop-color="#401986"/>
</linearGradient>
<linearGradient id="paint2_linear_353_52" x1="799.001" y1="-378.5" x2="792" y2="83" gradientUnits="userSpaceOnUse">
<stop offset="0.121667" stop-color="#993865"/>
<stop offset="1" stop-color="#401986"/>
</linearGradient>
<linearGradient id="paint3_linear_353_52" x1="799.001" y1="-378.5" x2="792" y2="83" gradientUnits="userSpaceOnUse">
<stop offset="0.121667" stop-color="#993865"/>
<stop offset="1" stop-color="#401986"/>
</linearGradient>
<linearGradient id="paint4_linear_353_52" x1="799.001" y1="-378.5" x2="792" y2="83" gradientUnits="userSpaceOnUse">
<stop offset="0.121667" stop-color="#993865"/>
<stop offset="1" stop-color="#401986"/>
</linearGradient>
<linearGradient id="paint5_linear_353_52" x1="799.001" y1="-378.5" x2="792" y2="83" gradientUnits="userSpaceOnUse">
<stop offset="0.121667" stop-color="#993865"/>
<stop offset="1" stop-color="#401986"/>
</linearGradient>
<linearGradient id="paint6_linear_353_52" x1="799.001" y1="-378.5" x2="792" y2="83" gradientUnits="userSpaceOnUse">
<stop offset="0.121667" stop-color="#993865"/>
<stop offset="1" stop-color="#401986"/>
</linearGradient>
<linearGradient id="paint7_linear_353_52" x1="799.001" y1="-378.5" x2="792" y2="83" gradientUnits="userSpaceOnUse">
<stop offset="0.121667" stop-color="#993865"/>
<stop offset="1" stop-color="#401986"/>
</linearGradient>
<linearGradient id="paint8_linear_353_52" x1="799.001" y1="-378.5" x2="792" y2="83" gradientUnits="userSpaceOnUse">
<stop offset="0.121667" stop-color="#993865"/>
<stop offset="1" stop-color="#401986"/>
</linearGradient>
<linearGradient id="paint9_linear_353_52" x1="799.001" y1="-378.5" x2="792" y2="83" gradientUnits="userSpaceOnUse">
<stop offset="0.121667" stop-color="#993865"/>
<stop offset="1" stop-color="#401986"/>
</linearGradient>
<linearGradient id="paint10_linear_353_52" x1="799.001" y1="-378.5" x2="792" y2="83" gradientUnits="userSpaceOnUse">
<stop offset="0.121667" stop-color="#993865"/>
<stop offset="1" stop-color="#401986"/>
</linearGradient>
<linearGradient id="paint11_linear_353_52" x1="799.001" y1="-378.5" x2="792" y2="83" gradientUnits="userSpaceOnUse">
<stop offset="0.121667" stop-color="#993865"/>
<stop offset="1" stop-color="#401986"/>
</linearGradient>
<linearGradient id="paint12_linear_353_52" x1="799.001" y1="-378.5" x2="792" y2="83" gradientUnits="userSpaceOnUse">
<stop offset="0.121667" stop-color="#993865"/>
<stop offset="1" stop-color="#401986"/>
</linearGradient>
<linearGradient id="paint13_linear_353_52" x1="799.001" y1="-378.5" x2="792" y2="83" gradientUnits="userSpaceOnUse">
<stop offset="0.121667" stop-color="#993865"/>
<stop offset="1" stop-color="#401986"/>
</linearGradient>
<linearGradient id="paint14_linear_353_52" x1="799.001" y1="-378.5" x2="792" y2="83" gradientUnits="userSpaceOnUse">
<stop offset="0.121667" stop-color="#993865"/>
<stop offset="1" stop-color="#401986"/>
</linearGradient>
<linearGradient id="paint15_linear_353_52" x1="799.001" y1="-378.5" x2="792" y2="83" gradientUnits="userSpaceOnUse">
<stop offset="0.121667" stop-color="#993865"/>
<stop offset="1" stop-color="#401986"/>
</linearGradient>
<linearGradient id="paint16_linear_353_52" x1="799.001" y1="-378.5" x2="792" y2="83" gradientUnits="userSpaceOnUse">
<stop offset="0.121667" stop-color="#993865"/>
<stop offset="1" stop-color="#401986"/>
</linearGradient>
</defs>
</svg>
