<svg width="1134" height="321" viewBox="0 0 1134 321" fill="none" xmlns="http://www.w3.org/2000/svg"><path d="M373.5 81.375h45v107.25h45v-140.25h56.625v99H606.75v34.5h62.625V54.75l11.25 -1.125v-6.75h23.25v-4.5h12.75v-4.5H738V44.25h9.75v174.375h18v-166.5l10.125 -1.125v-4.5h66v151.875h69V33h1.5V22.875h3V19.5h3V9.375h5.625v-5.25h22.875v-3.75h9V2.25h7.5v4.125h12v159h22.5V69h10.875V56.625h35.25V61.5h6v7.5h2.25v36.375h31.5v11.25h14.25v81.75h36V321H0V128.625h30.375V150.75h16.5v14.625H93v23.25h80.625V171H221.25V48.375h73.125V213H373.5z" fill="#2B1B50"/></svg>