<svg width="1296" height="283" viewBox="0 0 1296 283" fill="none" xmlns="http://www.w3.org/2000/svg">
<path d="M117 4.73862H193V-154.227H117V4.73862Z" fill="url(#paint0_linear_260_10)"/>
<path d="M267 75.2731H300V-83.6927H267V75.2731Z" fill="url(#paint1_linear_260_10)"/>
<path d="M304 119.489H381V-39.4771H304V119.489Z" fill="url(#paint2_linear_260_10)"/>
<path d="M374 63.6928H451V-95.273H374V63.6928Z" fill="url(#paint3_linear_260_10)"/>
<path d="M635 226.936L637.5 230.687L633 233.902L645.5 236.581L675 233.902L669.5 230.687L675 225.328V-126.856H635V226.936Z" fill="url(#paint4_linear_260_10)"/>
<path d="M690 282.666L767 271.612V-82.6399H690V282.666Z" fill="url(#paint5_linear_260_10)"/>
<path d="M821 248.906L829 254.265H839.5V260.695H876V254.265H892.5V-108.959H821V248.906Z" fill="url(#paint6_linear_260_10)"/>
<path d="M935 191.076H972.5L977 186.211H999H1007L1006.5 -174.229H935V191.076Z" fill="url(#paint7_linear_260_10)"/>
<path d="M1007 239.503H1051L1078.5 234.974V-125.803H1007V239.503Z" fill="url(#paint8_linear_260_10)"/>
<path d="M1067 190.497H1132.5V-181.599H1061L1067 190.497Z" fill="url(#paint9_linear_260_10)"/>
<path d="M1158 184.067H1185V-186.863H1158V184.067Z" fill="url(#paint10_linear_260_10)"/>
<path d="M1240 178.173H1251.5V174.422H1266V186.746H1296V-193.179H1240V178.173Z" fill="url(#paint11_linear_260_10)"/>
<path d="M169 21.5826H193V-137.383H169V21.5826Z" fill="url(#paint12_linear_260_10)"/>
<path d="M128 63.6928H161V-95.273H128V63.6928Z" fill="url(#paint13_linear_260_10)"/>
<path d="M70 68.9566H117V-132.119H70V68.9566Z" fill="url(#paint14_linear_260_10)"/>
<path d="M42 96.7218H52.5V105.296H70L73.5 103.152V81.7177L78 73.6797V-92.1147H42V96.7218Z" fill="url(#paint15_linear_260_10)"/>
<path d="M-2 84.397H16V47.9584H22.5V90.0116H34V-111.064H-2V84.397Z" fill="url(#paint16_linear_260_10)"/>
<path d="M34 90.0116H70V-111.064H34V90.0116Z" fill="url(#paint17_linear_260_10)"/>
<defs>
<linearGradient id="paint0_linear_260_10" x1="717" y1="-151.629" x2="685.301" y2="88.0152" gradientUnits="userSpaceOnUse">
<stop stop-color="#FF5DA9"/>
<stop offset="1" stop-color="#5133B2"/>
</linearGradient>
<linearGradient id="paint1_linear_260_10" x1="717" y1="-151.629" x2="685.301" y2="88.0152" gradientUnits="userSpaceOnUse">
<stop stop-color="#FF5DA9"/>
<stop offset="1" stop-color="#5133B2"/>
</linearGradient>
<linearGradient id="paint2_linear_260_10" x1="717" y1="-151.629" x2="685.301" y2="88.0152" gradientUnits="userSpaceOnUse">
<stop stop-color="#FF5DA9"/>
<stop offset="1" stop-color="#5133B2"/>
</linearGradient>
<linearGradient id="paint3_linear_260_10" x1="717" y1="-151.629" x2="685.301" y2="88.0152" gradientUnits="userSpaceOnUse">
<stop stop-color="#FF5DA9"/>
<stop offset="1" stop-color="#5133B2"/>
</linearGradient>
<linearGradient id="paint4_linear_260_10" x1="717" y1="-151.629" x2="685.301" y2="88.0152" gradientUnits="userSpaceOnUse">
<stop stop-color="#FF5DA9"/>
<stop offset="1" stop-color="#5133B2"/>
</linearGradient>
<linearGradient id="paint5_linear_260_10" x1="717" y1="-151.629" x2="685.301" y2="88.0152" gradientUnits="userSpaceOnUse">
<stop stop-color="#FF5DA9"/>
<stop offset="1" stop-color="#5133B2"/>
</linearGradient>
<linearGradient id="paint6_linear_260_10" x1="717" y1="-151.629" x2="685.301" y2="88.0152" gradientUnits="userSpaceOnUse">
<stop stop-color="#FF5DA9"/>
<stop offset="1" stop-color="#5133B2"/>
</linearGradient>
<linearGradient id="paint7_linear_260_10" x1="717" y1="-151.629" x2="685.301" y2="88.0152" gradientUnits="userSpaceOnUse">
<stop stop-color="#FF5DA9"/>
<stop offset="1" stop-color="#5133B2"/>
</linearGradient>
<linearGradient id="paint8_linear_260_10" x1="717" y1="-151.629" x2="685.301" y2="88.0152" gradientUnits="userSpaceOnUse">
<stop stop-color="#FF5DA9"/>
<stop offset="1" stop-color="#5133B2"/>
</linearGradient>
<linearGradient id="paint9_linear_260_10" x1="717" y1="-151.629" x2="685.301" y2="88.0152" gradientUnits="userSpaceOnUse">
<stop stop-color="#FF5DA9"/>
<stop offset="1" stop-color="#5133B2"/>
</linearGradient>
<linearGradient id="paint10_linear_260_10" x1="717" y1="-151.629" x2="685.301" y2="88.0152" gradientUnits="userSpaceOnUse">
<stop stop-color="#FF5DA9"/>
<stop offset="1" stop-color="#5133B2"/>
</linearGradient>
<linearGradient id="paint11_linear_260_10" x1="717" y1="-151.629" x2="685.301" y2="88.0152" gradientUnits="userSpaceOnUse">
<stop stop-color="#FF5DA9"/>
<stop offset="1" stop-color="#5133B2"/>
</linearGradient>
<linearGradient id="paint12_linear_260_10" x1="717" y1="-151.629" x2="685.301" y2="88.0152" gradientUnits="userSpaceOnUse">
<stop stop-color="#FF5DA9"/>
<stop offset="1" stop-color="#5133B2"/>
</linearGradient>
<linearGradient id="paint13_linear_260_10" x1="717" y1="-151.629" x2="685.301" y2="88.0152" gradientUnits="userSpaceOnUse">
<stop stop-color="#FF5DA9"/>
<stop offset="1" stop-color="#5133B2"/>
</linearGradient>
<linearGradient id="paint14_linear_260_10" x1="717" y1="-151.629" x2="685.301" y2="88.0152" gradientUnits="userSpaceOnUse">
<stop stop-color="#FF5DA9"/>
<stop offset="1" stop-color="#5133B2"/>
</linearGradient>
<linearGradient id="paint15_linear_260_10" x1="717" y1="-151.629" x2="685.301" y2="88.0152" gradientUnits="userSpaceOnUse">
<stop stop-color="#FF5DA9"/>
<stop offset="1" stop-color="#5133B2"/>
</linearGradient>
<linearGradient id="paint16_linear_260_10" x1="717" y1="-151.629" x2="685.301" y2="88.0152" gradientUnits="userSpaceOnUse">
<stop stop-color="#FF5DA9"/>
<stop offset="1" stop-color="#5133B2"/>
</linearGradient>
<linearGradient id="paint17_linear_260_10" x1="717" y1="-151.629" x2="685.301" y2="88.0152" gradientUnits="userSpaceOnUse">
<stop stop-color="#FF5DA9"/>
<stop offset="1" stop-color="#5133B2"/>
</linearGradient>
</defs>
</svg>
