<svg width="2100" height="435" viewBox="0 0 2100 435" fill="none" xmlns="http://www.w3.org/2000/svg">
<path d="M219 151.5H266V435H219V151.5Z" fill="url(#paint0_linear_351_34)"/>
<path d="M266 130.5H278V121.5L313 130.5V435H266V130.5Z" fill="url(#paint1_linear_351_34)"/>
<path d="M388 127.5L401 124H436V215.25V435H389L388.5 217L388 127.5Z" fill="url(#paint2_linear_351_34)"/>
<path d="M459 39.5L466.5 37.5H503.5V40.5H506V435H459V39.5Z" fill="url(#paint3_linear_351_34)"/>
<path d="M524 108.5L531.5 106.5H573V435H524V108.5Z" fill="url(#paint4_linear_351_34)"/>
<path d="M573 120.5H587.5V113.5H606.5V116.5H622V120.5V435H573V120.5Z" fill="url(#paint5_linear_351_34)"/>
<path d="M681 120.5H704.5V108H716V97H767V120.5V435H681V120.5Z" fill="url(#paint6_linear_351_34)"/>
<path d="M801 31.5V13H817V17.5H842.5V2.5H914V31.5V435H801V31.5Z" fill="url(#paint7_linear_351_34)"/>
<path d="M923 47.5H955.5V38H995.5V47.5H1036V435H923V47.5Z" fill="url(#paint8_linear_351_34)"/>
<path d="M1048 89H1172V435H1048V89Z" fill="url(#paint9_linear_351_34)"/>
<path d="M1172 140.5H1234V435H1172V140.5Z" fill="url(#paint10_linear_351_34)"/>
<path d="M1289 17.5H1299V39.5H1316.5L1328 0L1363 9.5V435H1289V17.5Z" fill="url(#paint11_linear_351_34)"/>
<path d="M1459 94H1464V96H1477.5V90H1472.5V77.5H1480V65H1512V117.5H1550.5V399H1604V140.5L1649 129V104.5H1703.5V399H1779V55H1792V51H1832.5V55V399H1891.5V140.5H1904V136.5H1913.5V133H1935.75V136.5H1958V140.5H1968.5V107.5H1973.5V102.5H2023V234H2046.5V176.5H2066V110.5H2077V80H2100V176.5V399V435H1512H1459V94Z" fill="url(#paint12_linear_351_34)"/>
<path d="M1395 90.5H1401V104.5H1415V97H1422.5V94H1459V435H1395V90.5Z" fill="url(#paint13_linear_351_34)"/>
<path d="M172 169.5L181.5 165H219V435H172V169.5Z" fill="url(#paint14_linear_351_34)"/>
<path d="M12.5 86H20.5V78H42.5V70.5H59.5V89L65.5 97.5V116H68V106H81.5V120.5H89V435H0V130.5H12.5V86Z" fill="url(#paint15_linear_351_34)"/>
<path d="M219 151.5H266V435H219V151.5Z" fill="url(#paint16_linear_351_34)"/>
<defs>
<linearGradient id="paint0_linear_351_34" x1="799.001" y1="517.5" x2="792" y2="56" gradientUnits="userSpaceOnUse">
<stop offset="0.121667" stop-color="#993865"/>
<stop offset="1" stop-color="#401986"/>
</linearGradient>
<linearGradient id="paint1_linear_351_34" x1="799.001" y1="517.5" x2="792" y2="56" gradientUnits="userSpaceOnUse">
<stop offset="0.121667" stop-color="#993865"/>
<stop offset="1" stop-color="#401986"/>
</linearGradient>
<linearGradient id="paint2_linear_351_34" x1="799.001" y1="517.5" x2="792" y2="56" gradientUnits="userSpaceOnUse">
<stop offset="0.121667" stop-color="#993865"/>
<stop offset="1" stop-color="#401986"/>
</linearGradient>
<linearGradient id="paint3_linear_351_34" x1="799.001" y1="517.5" x2="792" y2="56" gradientUnits="userSpaceOnUse">
<stop offset="0.121667" stop-color="#993865"/>
<stop offset="1" stop-color="#401986"/>
</linearGradient>
<linearGradient id="paint4_linear_351_34" x1="799.001" y1="517.5" x2="792" y2="56" gradientUnits="userSpaceOnUse">
<stop offset="0.121667" stop-color="#993865"/>
<stop offset="1" stop-color="#401986"/>
</linearGradient>
<linearGradient id="paint5_linear_351_34" x1="799.001" y1="517.5" x2="792" y2="56" gradientUnits="userSpaceOnUse">
<stop offset="0.121667" stop-color="#993865"/>
<stop offset="1" stop-color="#401986"/>
</linearGradient>
<linearGradient id="paint6_linear_351_34" x1="799.001" y1="517.5" x2="792" y2="56" gradientUnits="userSpaceOnUse">
<stop offset="0.121667" stop-color="#993865"/>
<stop offset="1" stop-color="#401986"/>
</linearGradient>
<linearGradient id="paint7_linear_351_34" x1="799.001" y1="517.5" x2="792" y2="56" gradientUnits="userSpaceOnUse">
<stop offset="0.121667" stop-color="#993865"/>
<stop offset="1" stop-color="#401986"/>
</linearGradient>
<linearGradient id="paint8_linear_351_34" x1="799.001" y1="517.5" x2="792" y2="56" gradientUnits="userSpaceOnUse">
<stop offset="0.121667" stop-color="#993865"/>
<stop offset="1" stop-color="#401986"/>
</linearGradient>
<linearGradient id="paint9_linear_351_34" x1="799.001" y1="517.5" x2="792" y2="56" gradientUnits="userSpaceOnUse">
<stop offset="0.121667" stop-color="#993865"/>
<stop offset="1" stop-color="#401986"/>
</linearGradient>
<linearGradient id="paint10_linear_351_34" x1="799.001" y1="517.5" x2="792" y2="56" gradientUnits="userSpaceOnUse">
<stop offset="0.121667" stop-color="#993865"/>
<stop offset="1" stop-color="#401986"/>
</linearGradient>
<linearGradient id="paint11_linear_351_34" x1="799.001" y1="517.5" x2="792" y2="56" gradientUnits="userSpaceOnUse">
<stop offset="0.121667" stop-color="#993865"/>
<stop offset="1" stop-color="#401986"/>
</linearGradient>
<linearGradient id="paint12_linear_351_34" x1="799.001" y1="517.5" x2="792" y2="56" gradientUnits="userSpaceOnUse">
<stop offset="0.121667" stop-color="#993865"/>
<stop offset="1" stop-color="#401986"/>
</linearGradient>
<linearGradient id="paint13_linear_351_34" x1="799.001" y1="517.5" x2="792" y2="56" gradientUnits="userSpaceOnUse">
<stop offset="0.121667" stop-color="#993865"/>
<stop offset="1" stop-color="#401986"/>
</linearGradient>
<linearGradient id="paint14_linear_351_34" x1="799.001" y1="517.5" x2="792" y2="56" gradientUnits="userSpaceOnUse">
<stop offset="0.121667" stop-color="#993865"/>
<stop offset="1" stop-color="#401986"/>
</linearGradient>
<linearGradient id="paint15_linear_351_34" x1="799.001" y1="517.5" x2="792" y2="56" gradientUnits="userSpaceOnUse">
<stop offset="0.121667" stop-color="#993865"/>
<stop offset="1" stop-color="#401986"/>
</linearGradient>
<linearGradient id="paint16_linear_351_34" x1="799.001" y1="517.5" x2="792" y2="56" gradientUnits="userSpaceOnUse">
<stop offset="0.121667" stop-color="#993865"/>
<stop offset="1" stop-color="#401986"/>
</linearGradient>
</defs>
</svg>
