<svg width="1296" height="481" viewBox="0 0 1296 481" fill="none" xmlns="http://www.w3.org/2000/svg">
<path d="M117 280.938H193V441.626H117V280.938Z" fill="url(#paint0_linear_239_86)"/>
<path d="M267 209.639H300V370.327H267V209.639Z" fill="url(#paint1_linear_239_86)"/>
<path d="M304 164.945H381V325.633H304V164.945Z" fill="url(#paint2_linear_239_86)"/>
<path d="M374 221.345H451V382.033H374V221.345Z" fill="url(#paint3_linear_239_86)"/>
<path d="M635 56.3333L637.5 52.5417L633 49.2917L645.5 46.5833L675 49.2917L669.5 52.5417L675 57.9583V413.958H635V56.3333Z" fill="url(#paint4_linear_239_86)"/>
<path d="M690 0L767 11.1737V369.263H690V0Z" fill="url(#paint5_linear_239_86)"/>
<path d="M821 34.125L829 28.7083H839.5V22.2083H876V28.7083H892.5V395.867H821V34.125Z" fill="url(#paint6_linear_239_86)"/>
<path d="M935 92.5819H972.5L977 97.5H999H1007L1006.5 461.845H935V92.5819Z" fill="url(#paint7_linear_239_86)"/>
<path d="M1007 43.6305H1051L1078.5 48.2083V412.894H1007V43.6305Z" fill="url(#paint8_linear_239_86)"/>
<path d="M1067 93.1667H1132.5V469.294H1061L1067 93.1667Z" fill="url(#paint9_linear_239_86)"/>
<path d="M1158 99.6667H1185V474.615H1158V99.6667Z" fill="url(#paint10_linear_239_86)"/>
<path d="M1240 105.625H1251.5V109.417H1266V96.9583H1296V481H1240V105.625Z" fill="url(#paint11_linear_239_86)"/>
<path d="M169 263.912H193V424.6H169V263.912Z" fill="url(#paint12_linear_239_86)"/>
<path d="M128 221.345H161V382.033H128V221.345Z" fill="url(#paint13_linear_239_86)"/>
<path d="M70 216.024H117V419.279H70V216.024Z" fill="url(#paint14_linear_239_86)"/>
<path d="M42 187.958H52.5V179.292H70L73.5 181.458V203.125L78 211.25V378.841H42V187.958Z" fill="url(#paint15_linear_239_86)"/>
<path d="M-2 200.417H16V237.25H22.5V194.741H34V397.996H-2V200.417Z" fill="url(#paint16_linear_239_86)"/>
<path d="M34 194.741H70V397.996H34V194.741Z" fill="url(#paint17_linear_239_86)"/>
<defs>
<linearGradient id="paint0_linear_239_86" x1="717" y1="439" x2="684.622" y2="196.85" gradientUnits="userSpaceOnUse">
<stop stop-color="#FF5DA9"/>
<stop offset="1" stop-color="#5133B2"/>
</linearGradient>
<linearGradient id="paint1_linear_239_86" x1="717" y1="439" x2="684.622" y2="196.85" gradientUnits="userSpaceOnUse">
<stop stop-color="#FF5DA9"/>
<stop offset="1" stop-color="#5133B2"/>
</linearGradient>
<linearGradient id="paint2_linear_239_86" x1="717" y1="439" x2="684.622" y2="196.85" gradientUnits="userSpaceOnUse">
<stop stop-color="#FF5DA9"/>
<stop offset="1" stop-color="#5133B2"/>
</linearGradient>
<linearGradient id="paint3_linear_239_86" x1="717" y1="439" x2="684.622" y2="196.85" gradientUnits="userSpaceOnUse">
<stop stop-color="#FF5DA9"/>
<stop offset="1" stop-color="#5133B2"/>
</linearGradient>
<linearGradient id="paint4_linear_239_86" x1="717" y1="439" x2="684.622" y2="196.85" gradientUnits="userSpaceOnUse">
<stop stop-color="#FF5DA9"/>
<stop offset="1" stop-color="#5133B2"/>
</linearGradient>
<linearGradient id="paint5_linear_239_86" x1="717" y1="439" x2="684.622" y2="196.85" gradientUnits="userSpaceOnUse">
<stop stop-color="#FF5DA9"/>
<stop offset="1" stop-color="#5133B2"/>
</linearGradient>
<linearGradient id="paint6_linear_239_86" x1="717" y1="439" x2="684.622" y2="196.85" gradientUnits="userSpaceOnUse">
<stop stop-color="#FF5DA9"/>
<stop offset="1" stop-color="#5133B2"/>
</linearGradient>
<linearGradient id="paint7_linear_239_86" x1="717" y1="439" x2="684.622" y2="196.85" gradientUnits="userSpaceOnUse">
<stop stop-color="#FF5DA9"/>
<stop offset="1" stop-color="#5133B2"/>
</linearGradient>
<linearGradient id="paint8_linear_239_86" x1="717" y1="439" x2="684.622" y2="196.85" gradientUnits="userSpaceOnUse">
<stop stop-color="#FF5DA9"/>
<stop offset="1" stop-color="#5133B2"/>
</linearGradient>
<linearGradient id="paint9_linear_239_86" x1="717" y1="439" x2="684.622" y2="196.85" gradientUnits="userSpaceOnUse">
<stop stop-color="#FF5DA9"/>
<stop offset="1" stop-color="#5133B2"/>
</linearGradient>
<linearGradient id="paint10_linear_239_86" x1="717" y1="439" x2="684.622" y2="196.85" gradientUnits="userSpaceOnUse">
<stop stop-color="#FF5DA9"/>
<stop offset="1" stop-color="#5133B2"/>
</linearGradient>
<linearGradient id="paint11_linear_239_86" x1="717" y1="439" x2="684.622" y2="196.85" gradientUnits="userSpaceOnUse">
<stop stop-color="#FF5DA9"/>
<stop offset="1" stop-color="#5133B2"/>
</linearGradient>
<linearGradient id="paint12_linear_239_86" x1="717" y1="439" x2="684.622" y2="196.85" gradientUnits="userSpaceOnUse">
<stop stop-color="#FF5DA9"/>
<stop offset="1" stop-color="#5133B2"/>
</linearGradient>
<linearGradient id="paint13_linear_239_86" x1="717" y1="439" x2="684.622" y2="196.85" gradientUnits="userSpaceOnUse">
<stop stop-color="#FF5DA9"/>
<stop offset="1" stop-color="#5133B2"/>
</linearGradient>
<linearGradient id="paint14_linear_239_86" x1="717" y1="439" x2="684.622" y2="196.85" gradientUnits="userSpaceOnUse">
<stop stop-color="#FF5DA9"/>
<stop offset="1" stop-color="#5133B2"/>
</linearGradient>
<linearGradient id="paint15_linear_239_86" x1="717" y1="439" x2="684.622" y2="196.85" gradientUnits="userSpaceOnUse">
<stop stop-color="#FF5DA9"/>
<stop offset="1" stop-color="#5133B2"/>
</linearGradient>
<linearGradient id="paint16_linear_239_86" x1="717" y1="439" x2="684.622" y2="196.85" gradientUnits="userSpaceOnUse">
<stop stop-color="#FF5DA9"/>
<stop offset="1" stop-color="#5133B2"/>
</linearGradient>
<linearGradient id="paint17_linear_239_86" x1="717" y1="439" x2="684.622" y2="196.85" gradientUnits="userSpaceOnUse">
<stop stop-color="#FF5DA9"/>
<stop offset="1" stop-color="#5133B2"/>
</linearGradient>
</defs>
</svg>
