<svg width="1512" height="420" viewBox="0 0 1512 420" fill="none" xmlns="http://www.w3.org/2000/svg">
<path d="M1490.91 -66L1397.4 -42.6182H1332L1419.77 420L1541.39 420L1624 368.233L1490.91 -66Z" fill="url(#paint0_linear_6_18)"/>
<path d="M1361.5 -56L1280 -38.5H1223L1299.5 307.744L1405.5 307.744L1477.5 269L1361.5 -56Z" fill="url(#paint1_linear_6_18)"/>
<path d="M29.0923 -66L122.601 -42.6182H188L100.228 420L-21.391 420L-104 368.233L29.0923 -66Z" fill="url(#paint2_linear_6_18)"/>
<path d="M158.5 -56L240 -38.5H297L220.5 307.744L114.5 307.744L42.5 269L158.5 -56Z" fill="url(#paint3_linear_6_18)"/>
<path d="M130 -87.5H1272L1228.5 230L1146.5 202L1006.5 221.5L838.5 128.5L520.5 336.5L354.5 204H139L130 -87.5Z" fill="#1E1067"/>
<path d="M175.5 -21L298.5 -15.5L277 81L367.5 204.5H266L149.5 81L175.5 -21Z" fill="#100620"/>
<path d="M35.5 -12.5L163.5 -6L135.5 81L242 204.5L141 209L-4 88L35.5 -12.5Z" fill="#100620"/>
<path d="M544 -6.5H967.5L997 327.5L933.5 369H577.5L519.5 327.5L544 -6.5Z" fill="url(#paint4_linear_6_18)"/>
<path d="M391.5 -15H522L477 230L522 336.5H426.5L344 230L391.5 -15Z" fill="#100620"/>
<path d="M1169.5 -8H978L1005.5 164V221.5H1205L1225 164L1169.5 -8Z" fill="#100620"/>
<path d="M1281.28 -23.25H1189.28L1236.78 166.25L1221.78 228.75H1300.72L1331.28 166.25L1281.28 -23.25Z" fill="#100620"/>
<path d="M600.001 -27.5H672.001L649.001 285H562.839L600.001 -27.5Z" fill="#A183B2"/>
<path d="M906 -29H836.5L860.838 286.5H947L906 -29Z" fill="#5D2F78"/>
<path d="M720.5 -34H781.5L805 286H706L720.5 -34Z" fill="#79E2F0"/>
<defs>
<linearGradient id="paint0_linear_6_18" x1="955.288" y1="390.761" x2="943.865" y2="-108.55" gradientUnits="userSpaceOnUse">
<stop stop-color="#100620"/>
<stop offset="1" stop-color="#402C5F" stop-opacity="0.64"/>
</linearGradient>
<linearGradient id="paint1_linear_6_18" x1="720.959" y1="349.201" x2="748.371" y2="-64.8033" gradientUnits="userSpaceOnUse">
<stop stop-color="#100620"/>
<stop offset="1" stop-color="#2A1153" stop-opacity="0.81"/>
</linearGradient>
<linearGradient id="paint2_linear_6_18" x1="955.288" y1="390.761" x2="943.865" y2="-108.55" gradientUnits="userSpaceOnUse">
<stop stop-color="#100620"/>
<stop offset="1" stop-color="#402C5F" stop-opacity="0.64"/>
</linearGradient>
<linearGradient id="paint3_linear_6_18" x1="720.959" y1="349.201" x2="748.371" y2="-64.8033" gradientUnits="userSpaceOnUse">
<stop stop-color="#100620"/>
<stop offset="1" stop-color="#2A1153" stop-opacity="0.81"/>
</linearGradient>
<linearGradient id="paint4_linear_6_18" x1="759.095" y1="303.768" x2="759.095" y2="363.911" gradientUnits="userSpaceOnUse">
<stop stop-color="#1F1037"/>
<stop offset="1" stop-color="#100620"/>
</linearGradient>
</defs>
</svg>
