<svg width="38" height="38" viewBox="0 0 38 38" fill="none" xmlns="http://www.w3.org/2000/svg">
<path d="M22.2117 0L14.8078 0V3.70386H11.1058V7.40772H7.4039V11.1116H3.70195V14.8154H0L0 18.5193H3.70195V37.0386H16.6588V25.927H20.3607V37.0386H33.3175V18.5193H37.0195V14.8154H33.3175V11.1116H29.6156V7.40772H25.9136V3.70386H22.2117V0ZM22.2117 3.70386V7.40772H25.9136V11.1116H29.6156V14.8154H33.3175V18.5193H29.6156V33.3347H24.0627V22.2231H12.9568V33.3347H7.4039V18.5193H3.70195V14.8154H7.4039V11.1116H11.1058V7.40772H14.8078V3.70386H22.2117Z" fill="#D7D7D7"/>
</svg>
