<svg width="40" height="40" viewBox="0 0 40 40" fill="none" xmlns="http://www.w3.org/2000/svg">
<path d="M0.541016 0.54126H4.91834V39.9575H0.541016L0.541016 0.54126ZM35.5596 0.54126L4.91834 0.54126V4.92085H35.5596V35.578H4.91834V39.9575H39.937V0.54126H35.5596ZM18.0503 13.68H22.4277V9.30043H18.0503V13.68ZM22.4277 31.1984H18.0503V18.0596H22.4277V31.1984Z" fill="black"/>
<path d="M0.541016 0.54126H4.91834V39.9575H0.541016L0.541016 0.54126ZM35.5596 0.54126L4.91834 0.54126V4.92085H35.5596V35.578H4.91834V39.9575H39.937V0.54126H35.5596ZM18.0503 13.68H22.4277V9.30043H18.0503V13.68ZM22.4277 31.1984H18.0503V18.0596H22.4277V31.1984Z" fill="#D7D7D7"/>
</svg>
