<svg width="46" height="41" viewBox="0 0 46 41" fill="none" xmlns="http://www.w3.org/2000/svg">
<path d="M9.19029 0.166016L40.7069 0.166016V4.67071H45.2092V18.1848H40.7069V36.2036H36.2045V4.67071H9.19029V0.166016ZM27.1998 31.6989V27.1942H9.19029V4.67071H4.68792V27.1942H0.185547L0.185547 36.2036H4.68792V40.7082H36.2045V36.2036H31.7021V31.6989H27.1998ZM27.1998 31.6989V36.2036H4.68792V31.6989H27.1998ZM13.6927 9.1754H31.7021V13.6801H13.6927V9.1754ZM31.7021 18.1848H13.6927V22.6895H31.7021V18.1848Z" fill="black"/>
<path d="M9.19029 0.166016L40.7069 0.166016V4.67071H45.2092V18.1848H40.7069V36.2036H36.2045V4.67071H9.19029V0.166016ZM27.1998 31.6989V27.1942H9.19029V4.67071H4.68792V27.1942H0.185547L0.185547 36.2036H4.68792V40.7082H36.2045V36.2036H31.7021V31.6989H27.1998ZM27.1998 31.6989V36.2036H4.68792V31.6989H27.1998ZM13.6927 9.1754H31.7021V13.6801H13.6927V9.1754ZM31.7021 18.1848H13.6927V22.6895H31.7021V18.1848Z" fill="#D7D7D7"/>
</svg>
